<?xml version="1.0" encoding="utf-8"?>
<!-- Generator: Adobe Illustrator 18.0.0, SVG Export Plug-In . SVG Version: 6.00 Build 0)  -->
<!DOCTYPE svg PUBLIC "-//W3C//DTD SVG 1.1//EN" "http://www.w3.org/Graphics/SVG/1.1/DTD/svg11.dtd">
<svg version="1.1" id="图层_1" xmlns="http://www.w3.org/2000/svg" xmlns:xlink="http://www.w3.org/1999/xlink" x="0px" y="0px"
	 viewBox="0 39.5 595.3 762.8" enable-background="new 0 39.5 595.3 762.8" xml:space="preserve">
<g id="_x23_050505ff">
	<path fill="#050505" d="M40.3,39.5h513.9c5.4,1.7,11.1,2.9,16.1,5.8c8.7,4.4,15.5,12,19.9,20.6c2.4,4.6,3.7,9.6,5.1,14.6v680.8
		c-1.6,5.1-2.7,10.4-5.3,15.1c-5.9,11.5-16.6,20.4-29,24c-2.2,0.7-4.5,1.2-6.7,2H41.1c-2.6-0.9-5.3-1.5-7.9-2.4
		c-12.6-4-23.4-13.5-28.8-25.6c-2-4.1-2.9-8.7-4.3-13.1V80.5c0.7-2.5,1.3-5,2.1-7.5c3.7-11.9,12.2-22.2,23.1-28
		c0.1-0.1,0.2-0.1,0.2-0.1C30.1,42.2,35.3,41.3,40.3,39.5 M42.2,54.7c-11,1.8-20.7,9.6-24.9,19.8c-1.8,4.3-2.6,9-2.6,13.6
		c0,222.2,0,444.4,0,666.6c-0.1,10.8,5.6,21.3,14.6,27.3c5.7,3.9,12.5,5.9,19.3,5.7c163.9,0,327.8,0,491.7,0
		c5.7,0,11.4,0.4,16.8-1.4c13.9-4,24.1-17.9,23.6-32.4c0-221.9,0-443.9,0-665.8c0.1-4.6-0.7-9.3-2.6-13.5
		C573,62.5,560.6,54,547.5,54.2c-166.1-0.1-332.2,0-498.3,0C46.9,54.2,44.5,54.3,42.2,54.7z"/>
	<path fill="#050505" d="M240,697.7c9.8-9,17.2-20.6,22.2-32.9c3.9,1.2,7.9,2.3,11.8,3.6c-0.4,1.1-0.7,2.1-1.1,3.2
		c5.9,11,14,20.7,23.7,28.4c-3.6,3.1-6.8,6.5-9.7,10.3c-8.1-7.6-14.3-17-19.9-26.5c-5.5,9.8-12.5,18.9-20.9,26.3
		c-1.3-1.4-2.6-2.9-4-4.3c-0.2,0.4-0.7,1.5-0.9,1.9c-16.5-0.1-33.1,0-49.6-0.1c0-3.4-0.1-6.8,0-10.1c1.8,0,3.6,0,5.4,0
		c0.1-8.5,0-17,0.1-25.6c3.6,0,7.2-0.1,10.8,0.1c0.1,8.5-0.2,17.1,0.1,25.5c1.9-0.1,3.8-0.1,5.7,0c0-10.5,0-20.9,0-31.5
		c3.8,0,7.6,0,11.4,0c0,4,0,7.9,0,11.8c5.2,0.1,10.4,0,15.6,0c0.1,3.5,0.1,6.8,0,10.3c-5.2,0-10.4,0-15.6,0c0,3.1,0,6.2,0.1,9.3
		C230,697.7,235,697.7,240,697.7z"/>
	<path fill="#050505" d="M117.8,672.7c17.9-1.2,35.9-3,53.4-7c2.6,3.3,4.5,7.2,6.6,10.9c-7.3,1.8-14.6,2.9-22,3.9
		c-0.1,3.5,0,7,0,10.5c9.5,0.1,19,0,28.4,0c0,3.8,0,7.6,0,11.5c-9.5,0.1-19,0-28.4,0.1c0,3.4,0,6.8,0,10.1c7.2,0,14.4,0,21.5,0
		c0.1,11.4,0.1,22.7,0,34.1c-18.7,0-37.4,0-56.1,0c0-11.4,0-22.7,0-34c7.1-0.1,14.1,0,21.2,0c0-3.4,0-6.8,0-10.1
		c-9.7-0.1-19.3,0.1-29-0.1c0.1-3.8,0-7.6,0-11.5c9.7,0,19.3,0.1,29-0.1c0-3,0-6,0-9.1c-7.1,0.3-14.2,1.2-21.3,1.1
		C120.4,679.3,119.3,675.9,117.8,672.7 M133.8,723c0,4.4,0,8.8,0,13.2c10.2,0,20.4,0.1,30.6-0.1c-0.1-4.4-0.1-8.7,0-13.2
		C154.2,722.9,144,723,133.8,723z"/>
	<path fill="#050505" d="M312.6,665.5c4-0.2,8.1-0.2,12.1,0c-0.1,6.8-0.1,13.7,0,20.6c3.7,0,7.3-0.1,11,0.1c0,4-0.1,8,0,12
		c-3.7,0.2-7.3,0.1-11,0.1c-0.3,5.4-0.1,10.9-0.1,16.3c3.3-0.8,6.6-1.7,9.8-2.6c0.7,4,1.2,7.9,1.8,11.9c-3.9,1.2-7.8,2.4-11.7,3.5
		c-0.1,8.4,0,16.7,0,25.1c0,3.9,0.1,8.6-3.3,11.2c-4.6,3.6-10.7,3.2-16.2,3.2c-0.7-4.1-1.8-8.2-3.5-12.1c3.6,0,7.2,0.3,10.8-0.3
		c0.4-7.8,0.1-15.7,0.1-23.5c-3.4,0.9-6.7,1.9-10,2.8c-1.1-4.3-2.2-8.5-2.9-12.9c4.4-0.8,8.7-2.1,13-3.1c-0.1-6.5,0.2-13.1-0.1-19.5
		c-4,0.1-7.9,0.1-11.8,0c0-4,0-8.1,0-12.1c4,0,7.9,0,12,0C312.6,679.3,312.6,672.4,312.6,665.5z"/>
	<path fill="#050505" d="M83.6,676c3.2-2.5,6.4-5,9.7-7.4c6.1,5.2,12,10.7,16.7,17.2c-2.9,3.2-6.8,5.7-10.1,8.5
		C95.2,687.4,89.4,681.6,83.6,676z"/>
	<path fill="#050505" d="M341.7,668.8c18.1,0.1,36.2,0.1,54.3,0c0.1,12.7,0,25.4,0,38.1c-18.2,0-36.2,0-54.4,0
		C341.7,694.3,341.7,681.5,341.7,668.8 M354,677.9c0,1.8,0,3.6,0,5.4c9.8,0,19.7,0,29.5,0c0-1.8,0-3.5,0-5.3
		C373.6,677.9,363.9,677.9,354,677.9 M354,692.1c0,1.8,0,3.5,0,5.4c9.8,0,19.7,0.1,29.5,0c0-1.8,0-3.5,0-5.3
		C373.6,692.1,363.9,692.1,354,692.1z"/>
	<path fill="#050505" d="M422.1,672.3c25.9-0.1,51.9,0,77.8,0c0,4.4,0,8.8,0,13.2c-25.9,0-51.9,0.1-77.8,0
		C422.1,681.1,422.1,676.7,422.1,672.3z"/>
	<path fill="#050505" d="M256,702.3c3.3-1.8,6.6-3.3,10-4.9c3.5,4,6.7,8.4,9.5,12.9c-3.4,1.8-6.8,3.7-10.1,5.4l-0.5-0.2
		C262.1,710.9,259.2,706.5,256,702.3z"/>
	<path fill="#050505" d="M412,698.7c32.7,0,65.4,0,98.2,0c0,4.4,0,8.9,0,13.4c-13.8,0-27.6,0-41.4,0c-0.1,13.7,0,27.3-0.1,41
		c-0.1,3.7-0.2,7.9-3,10.7c-2.9,2.6-6.9,3.5-10.6,4c-5,0.6-10.1,0.5-15.1,0.5c-0.9-4.9-2.6-9.5-4.6-14c5.8,0.1,11.5,0.4,17.3,0.1
		c1.5,0,1.6-1.7,1.5-2.8c0-13.2,0-26.4,0-39.6c-14,0-28.1,0-42.1,0C412,707.6,412,703.2,412,698.7z"/>
	<path fill="#050505" d="M82,704.6c8.6,0,17.2-0.1,25.8,0c-0.1,12.5,0,25-0.1,37.5c0.1,1-0.4,2.6,0.8,3c5.2,2.9,10.4,6.2,16.3,7.4
		c10.1,2.2,20.6,2,30.9,1.7c9.9-0.4,19.8-1.1,29.6-2.2c-1.5,4.2-2.9,8.4-3.4,12.8c-11,0.8-21.9,1-32.8,1.2
		c-11.5,0-23.6-0.1-34.1-5.4c-3.2-1.5-6.2-3.7-9.5-5.1c-2.5-1.2-5.1,0.4-7.1,2.1c-3.5,3-6.3,6.6-9.2,10.1c-2.8-3.7-5.4-7.5-8.2-11.2
		c4-4.3,8.9-7.6,14-10.4c0-9.7-0.1-19.5,0.1-29.2c-4.3-0.3-8.7-0.1-13.2-0.1C81.9,712.9,82,708.7,82,704.6z"/>
	<path fill="#050505" d="M213.4,709.3c3.3,0.3,6.5,0.5,9.8,0.9c-0.4,6.3-1.2,12.6-2.4,18.8c-0.2,1.1,0.9,1.8,1.4,2.6
		c2.6,3.4,4.9,7,7.1,10.7c0.1-10.4,0-20.7,0.1-31c3.5,0,6.8,0,10.3,0c0,18.8,0.1,37.6,0,56.4c-3.4-0.1-6.8-0.1-10.2,0
		c-0.1-1.8-0.1-3.6,0-5.4c-11.8,0.7-23.5,1.7-35.3,2.2c0-17.6,0-35.1,0-52.6c3.5,0,7.1,0,10.6,0c0.1,10.7,0,21.3,0.1,31.9
		c2.4-2.8,3.7-6.2,4.9-9.7C212.1,726.1,212.8,717.6,213.4,709.3 M210.8,752.6c-2-2.1-4-4.3-6.2-6c0,2.4,0,4.7,0,7.1
		c8.2-0.4,16.5-0.7,24.7-1.2c0-2.5,0-5,0-7.5c-2.2,1.9-4.3,3.9-6.5,5.8c-1.6-3.3-3.4-6.5-5.4-9.6
		C215.6,745.2,213.6,749.2,210.8,752.6z"/>
	<path fill="#050505" d="M336.4,711.8c21.7,0,43.4,0,65,0c0.1,3.5,0.1,7.1,0,10.7c-8.9,0-17.8,0.1-26.7,0c-0.1,3.2-0.1,6.5,0,9.8
		c7,0,14-0.2,21,0.1c-0.1,3.2,0.1,6.4-0.1,9.6l-0.4,0.4c-6.8,0.1-13.7,0-20.5,0c-0.1,4.3-0.1,8.5,0,12.8c9.9,0.4,19.8,0.1,29.8,0.1
		c-1.7,3.7-2.9,7.6-3.5,11.5c-11.3-0.4-22.9,1.1-34-1.5c-7.8-1.8-14.3-7.2-18.2-14c-3,6.2-6.5,12.2-11.6,16.9
		c-3-2.9-6.2-5.5-9.6-7.9c10.1-8.5,13.9-21.8,15.3-34.4c4,0.1,8,0.8,12.1,1.3c-0.4,3.7-1.2,7.3-2,11c1.6,5.1,4.8,9.8,9.3,12.9
		c0.1-9.6,0.1-19.1,0-28.7c-8.6,0.1-17.2,0.1-25.8,0C336.4,719,336.4,715.4,336.4,711.8z"/>
	<path fill="#050505" d="M244.6,716.6c9.8,0.1,19.7,0,29.5,0.1c3.2,0,6.5,0.3,9.6-0.7c2.9,1.9,6,3.8,8.9,5.7
		c-5.2,10.7-12.2,20.4-19.3,29.9c2.9,2.4,5.9,4.9,8.7,7.3c-2.4,3.5-5,6.8-7.3,10.3c-9.6-9.3-20.1-17.3-30.4-25.7
		c2.3-2.9,4.5-6,7-8.8c4,3,8.1,6.2,12.1,9.3c4.1-5,7.9-10.3,11.2-15.8c-10-0.1-20,0-30,0C244.4,724.3,244.3,720.4,244.6,716.6z"/>
	<path fill="#050505" d="M479.8,724.7c4.1-1.7,8.2-3.5,12.4-5.1c7.1,10.3,14.1,21,18.3,32.9c-4.5,2-9,4.2-13.6,6
		c-1.7-3.6-2.6-7.6-4.6-11.1C488.9,739.4,484.3,732,479.8,724.7z"/>
	<path fill="#050505" d="M427.7,720c4.6,1.2,9.3,2.4,14,3.7c-4.8,12.6-11.9,24.5-20.9,34.6c-4-2.9-8-5.6-12.3-7.9
		C417.3,742,423.7,731.3,427.7,720z"/>
</g>
<g id="_x23_1497dbff">
	<path fill="#1497DB" d="M25.2,45.1c0.1-0.1,0.2-0.1,0.2-0.1C25.4,45,25.3,45,25.2,45.1z"/>
	<path fill="#1497DB" d="M79.4,103.5c4.9-1,9.8-1.7,14.7-1.5c135.4,0,271,0,406.4,0c11-0.4,22.6,2,31.3,9.1c3.7,3.2,7.3,6.5,9.6,11
		c4.1,6.2,5.4,13.8,6.1,21.1c0,168.3,0,336.6,0,504.9c-166.5,0-333.1,0-499.7,0c0-166.3,0-332.6,0-499c-0.2-7.9,0.9-15.9,4-23.2
		C57.2,114.9,67.3,106,79.4,103.5 M216.8,222c-0.4,10-0.1,20-0.1,30c32.4,0.2,64.8-0.1,97.2,0.1c5.4-0.1,10.2,4.6,10.1,10
		c0,12.7-0.1,25.5,0,38.2c0,2.6,0.1,5.6-1.4,7.9c-1.9,3.2-5.7,5.1-9.4,4.9c-13.7-0.1-27.4,0-41.2,0c-8.5,0-17.1,0.1-25.6,1.5
		c-9.3,1.6-17.6,7.4-22.8,15.2c-7.3,10.4-9.5,23.4-9.4,35.9c0.1,22.3,0,44.5,0,66.8c48.4,0.1,96.8,0.1,145.1,0.1
		c0.1-9.8,0.1-19.7,0-29.5c-14.6-0.3-29.3,0-44-0.1c-21.8,0-43.7-0.1-65.4,0.1c-0.4-4-0.1-8.2-0.2-12.2c0.1-8.5-0.1-17.1,0.1-25.7
		c0.4-5.4,0.8-11.3,4.6-15.4c2.9-3.3,7.2-4.9,11.4-5.5c8.9-1.3,17.9-0.9,26.8-1c13-0.1,26,0.1,39-0.1c14.9-0.7,27.9-13.9,28.2-28.8
		c0.1-20.8,0-41.6,0-62.5c0-10.2-5.9-20.2-14.6-25.4c-4.8-2.9-10.3-4.5-15.8-4.5C291.8,222,254.3,222.1,216.8,222 M150.7,224
		c-11.8,8.8-23.7,17.9-37.5,23.6c0,10.6-0.1,21.2,0.1,31.7c3.2-1.2,6.3-3,9.3-4.8c7.4-3.7,14.6-7.9,21.8-12.1
		c2.6-1.4,4.7-3.7,7.8-4.1c0.2,58.1,0,116.3,0.1,174.3c11.5,0,23,0,34.5,0c0-69.8,0-139.6,0-209.4c-10.8-0.1-21.5,0-32.3-0.1
		C153.1,223.3,151.7,223.2,150.7,224 M427.7,277.6c0,12,0.1,24,0,36c-11.2,0.1-22.6,0-33.8,0c-2.3-0.4-3.7,1.8-4.9,3.2
		c-0.4,5.3-0.1,10.7-0.2,15.9c-0.3,2.3,1.9,4.3,3.8,5.1c11.7,0.2,23.4,0,35.1,0.1c0.1,12,0,24,0,36c-0.3,2.4,2.1,4.7,4.4,4.4
		c5.4,0,10.8,0,16.2,0c2.4,0.3,4.7-2.1,4.4-4.4c0-12-0.1-24,0-36c11.5-0.1,23,0.1,34.5,0c1.6,0.1,2.6-1.4,3.5-2.4
		c0.4-5.8,0.1-11.6,0.1-17.4c0.3-2.4-2.1-4.7-4.4-4.4c-11.2,0-22.6,0.1-33.8,0c-0.1-12,0-24,0-36c0.3-2.4-2.1-4.7-4.4-4.4
		c-5.4,0-10.8,0-16.2,0C429.7,272.9,427.4,275.2,427.7,277.6 M138.1,543.6c-8.7,6.2-13.3,16.9-14,27.3c-1,11,1.8,22.9,9.8,30.7
		c6.8,7,16.8,9.7,26.4,9.6c7.3,0.1,14.9-1.8,20.4-6.8c4.9-4.6,6.9-11.4,7.3-17.9c-1.3-0.1-2.6-0.3-4-0.4c-1,5.1-2.4,10.8-6.5,14.4
		c-5.3,4.4-12.8,5.1-19.3,4c-6.8-1.3-12.5-6.3-15.4-12.5c-3.5-7.4-4.1-15.9-3.3-24c1-8.6,4.6-17.3,11.2-23
		c6.4-5.7,17.1-5.7,23.1,0.5c5.1,4.6,7,11.3,9.3,17.5c1.5,0.2,3.7,0.1,3.7-1.8c-0.1-7.8-0.5-15.7-0.4-23.5c-1.1-0.1-2.3-0.2-3.4-0.3
		c-0.7,1-1.5,1.9-2.3,2.9c-4.1-1-8-2.7-12.2-3.5C158.1,535,146.8,537.4,138.1,543.6 M222.8,539.3c-6.6,16.9-13.1,33.9-19.8,50.8
		c-1.9,4.6-3.7,9.6-7.5,13.1c-1.8,1.8-4.4,2.1-6.8,2.4c-0.2,1.5-0.1,3.8,1.8,4c6.6,0.1,13.2,0,19.8,0.1c1.2-0.1,2.7,0.3,3.4-1
		c0.8-0.9,0.3-2.1,0.4-3.1c-2.4-0.4-5.4-0.7-6.9-3c-1.8-2.7-0.7-6.1,0.2-8.9c1.5-3.9,2.9-7.7,4.6-11.6c6.7,0.1,13.4-0.1,20.1,0.1
		c1.8,4.8,3.9,9.5,5.7,14.3c0.7,2.1,1.4,4.9-0.4,6.6c-2.1,2.2-5.4,2.1-8.1,2.6c-0.3,1.7,0.1,4.3,2.4,4c10.5,0,20.9,0.1,31.5,0
		c2.1-0.1,2-2.5,1.8-4c-2.8-0.5-6-0.5-8.2-2.5c-2.2-2.2-3.4-5.1-4.7-7.9c-7.9-19-15.8-38.1-23.7-57.2
		C226.4,538.2,223.4,536.9,222.8,539.3 M266.3,538.2c-1.2,0.9-1,2.5-1,3.8c2.9,0.4,6.3,0.5,8.4,2.9c2.1,2.5,1.9,6,2.1,9.1
		c0,13.4,0,26.9,0,40.4c-0.2,3.2-0.2,6.8-2.9,9c-2.1,2-5.2,1.8-7.9,2.1c-0.1,1.5,0.4,2.8,1.2,4c12.2,0.1,24.4,0,36.6,0.1
		c8.4-0.2,17.3-0.6,24.5-5.4c8.1-5.4,12.3-15.1,12.9-24.5c1-11.4-2.7-23.5-11-31.6c-6.3-6.5-15.3-9.6-24.2-10
		c-11-0.4-22-0.1-33.1-0.1C270.1,537.9,268.2,537.8,266.3,538.2 M346.3,540.5c1.5,2.5,5.1,1.5,7.2,3.2c3.4,2.2,3.3,6.7,3.4,10.3
		c0,13.2,0,26.5,0,39.8c-0.1,3.1,0.1,6.7-2.3,9.2c-2.1,2.4-5.6,2.4-8.5,2.8c0,1.5,0.3,3.8,2.3,4c10.2,0.1,20.5,0.1,30.7,0
		c2.3,0.3,2.3-2.5,2.3-4c-2.8-0.4-6-0.3-8.1-2.5c-2.3-2.3-2.4-5.7-2.4-8.7c0.1-6.2-0.1-12.3,0.1-18.4c5.8-0.1,11.6,0.1,17.4-0.4
		c5.1-0.5,10.4-2.6,13.7-6.8c3.2-4.1,3.7-9.8,2.9-14.8c-1.2-7.1-7-13-13.8-14.9c-4.2-1-8.5-1-12.8-1.1c-9.8,0-19.6,0-29.4,0
		C347.7,537.8,346.1,539,346.3,540.5 M438.8,537.9c-7.3,18.1-14,36.3-21.2,54.4c-1.8,4.1-3.5,8.5-7.1,11.3c-1.8,1.5-4.2,1.6-6.3,2.1
		c-0.1,1.5,0,4.3,2.3,4c7.1,0.1,14.1,0.1,21.2,0c2-0.1,2.1-2.4,2.2-3.8c-2.4-0.6-5.3-0.7-6.9-2.8c-2.1-2.4-1.2-5.8-0.3-8.6
		c1.5-4.1,3.2-8.1,4.7-12.2c6.7-0.1,13.4-0.1,20.1,0c1.6,4,3.2,8,4.9,12c1,2.5,2.3,5.4,1.1,8.1c-1.8,3-5.7,2.9-8.7,3.4
		c-0.1,1.5,0,4.3,2.2,4c10.5,0.1,21,0.1,31.5,0c2.1,0.1,2.2-2.4,2.2-4c-3-0.7-6.7-0.5-8.9-3c-2.2-2.4-3.3-5.6-4.7-8.5
		c-7.8-18.7-15.5-37.4-23.3-56.1C442.1,537.9,440.4,537.9,438.8,537.9z"/>
	<path fill="#1497DB" d="M289.8,542.9c7.3-0.7,15.4-0.4,21.6,4c9.2,6.2,13.8,17.6,13.8,28.5c0.2,9.2-2.8,18.9-9.7,25.2
		c-3.6,3.4-8.6,4.8-13.4,4.7c-3.3,0.1-7.1-0.3-9.5-2.8c-2.5-2.5-2.7-6.2-2.8-9.5C289.8,576.2,289.8,559.5,289.8,542.9z"/>
	<path fill="#1497DB" d="M371.1,542.7c4.7-0.1,10.1-0.8,14,2.5c7.1,5.9,7.1,18.8-0.8,24c-4,2.4-8.8,1.8-13.2,1.8
		C370.9,561.6,370.9,552.2,371.1,542.7z"/>
	<path fill="#1497DB" d="M213.9,576.8c2.5-6.6,4.8-13.4,7.8-19.9c2.6,6.6,5.5,13.2,7.9,19.9C224.3,577,219.1,577,213.9,576.8z"/>
	<path fill="#1497DB" d="M436.9,556.9c3,6.5,5.6,13.2,8.1,19.9c-5.2,0.1-10.4,0.1-15.7,0C431.8,570.1,434.3,563.6,436.9,556.9z"/>
</g>
<rect x="47.8" y="496.6" fill="#1497DB" width="499.7" height="151.5"/>
<g id="_x23_ffffffff">
	<path fill="#FFFFFF" d="M42.2,54.7c2.4-0.4,4.7-0.5,7.1-0.5c166.1,0,332.2,0,498.3,0c13-0.2,25.5,8.2,30.5,20.2
		c1.8,4.3,2.6,8.9,2.6,13.5c0,221.9,0,443.9,0,665.8c0.5,14.5-9.6,28.4-23.6,32.4c-5.4,1.8-11.2,1.4-16.8,1.4
		c-163.9,0-327.8,0-491.7,0c-6.8,0.1-13.7-1.8-19.3-5.7c-8.9-5.9-14.6-16.4-14.5-27.2c0-222.2,0-444.4,0-666.6
		c-0.1-4.6,0.7-9.3,2.6-13.6C21.6,64.3,31.2,56.5,42.2,54.7 M79.4,103.5c-12.1,2.6-22.2,11.4-27.6,22.3c-3.2,7.3-4.3,15.4-4,23.2
		c0,166.3,0,332.7,0,499c166.5,0,333.1,0,499.7,0c0-168.3,0-336.6,0-504.9c-0.7-7.3-1.9-14.8-6.1-21.1c-2.3-4.3-6-7.7-9.6-11
		c-8.6-7.1-20.2-9.5-31.2-9.1c-135.4,0-271,0-406.4,0C89.1,101.8,84.2,102.4,79.4,103.5 M240,697.7c-5,0-10,0-15,0
		c-0.1-3.1,0-6.2-0.1-9.3c5.2-0.1,10.4,0,15.6,0c0.1-3.5,0.1-6.8,0-10.3c-5.2,0-10.4,0-15.6,0c0-4,0-7.9,0-11.8c-3.8,0-7.6,0-11.4,0
		c-0.1,10.5,0,20.9,0,31.5c-1.9,0-3.8,0-5.7,0c-0.3-8.5-0.1-17-0.1-25.5c-3.6-0.1-7.2-0.1-10.8-0.1c0,8.5,0.1,17-0.1,25.6
		c-1.8,0-3.6,0-5.4,0c-0.1,3.4,0,6.8,0,10.1c16.5,0.1,33.1,0,49.6,0.1c0.2-0.5,0.7-1.5,0.9-1.9c1.3,1.4,2.6,2.9,4,4.3
		c8.5-7.5,15.4-16.5,20.9-26.3c5.6,9.6,11.9,18.8,19.9,26.5c2.9-3.7,6.1-7.2,9.7-10.3c-9.6-7.9-17.9-17.5-23.7-28.4
		c0.4-1.1,0.7-2.1,1.1-3.2c-3.9-1.2-7.9-2.4-11.8-3.6C257.2,677.1,249.9,688.7,240,697.7 M117.8,672.7c1.5,3.3,2.6,6.8,3.3,10.3
		c7.1,0.1,14.2-0.8,21.3-1.1c0,3,0,6,0,9.1c-9.7,0.1-19.3,0-29,0.1c0,3.8,0,7.6,0,11.5c9.7,0.1,19.3,0,29,0.1c0,3.4,0,6.8,0,10.1
		c-7.1,0-14.1,0-21.2,0c0,11.3,0,22.7,0,34c18.7,0,37.4,0,56.1,0c0.1-11.4,0.1-22.7,0-34.1c-7.2,0-14.4,0-21.5,0
		c-0.1-3.4,0-6.8,0-10.1c9.5,0,19,0.1,28.4-0.1c-0.1-3.8,0-7.6,0-11.5c-9.5,0-19,0-28.4,0c0-3.5,0-7,0-10.5c7.4-1,14.8-2.1,22-3.9
		c-2.1-3.6-4-7.6-6.6-10.9C153.7,669.6,135.7,671.4,117.8,672.7 M312.6,665.5c0.1,6.8,0.1,13.7,0,20.7c-4,0-7.9,0-12,0
		c0,4,0,8.1,0,12.1c4,0,7.9,0.1,11.8,0c0.3,6.5,0.1,13.1,0.1,19.5c-4.3,1-8.6,2.3-13,3.1c0.7,4.3,1.8,8.6,2.9,12.9
		c3.3-0.9,6.6-1.9,10-2.8c0,7.9,0.3,15.7-0.1,23.5c-3.5,0.5-7.2,0.3-10.8,0.3c1.7,3.8,2.8,7.9,3.5,12.1c5.4-0.1,11.7,0.4,16.2-3.2
		c3.3-2.6,3.2-7.3,3.3-11.2c0-8.4-0.1-16.7,0-25.1c3.9-1.2,7.8-2.4,11.7-3.5c-0.5-4-1.1-7.9-1.8-11.9c-3.3,0.9-6.5,1.8-9.8,2.6
		c0-5.4-0.2-10.9,0.1-16.3c3.7,0,7.3,0.1,11-0.1c-0.1-4-0.1-8,0-12c-3.7-0.1-7.3-0.1-11-0.1c-0.1-6.9-0.1-13.7,0-20.6
		C320.6,665.3,316.6,665.3,312.6,665.5 M83.6,676c5.8,5.7,11.6,11.5,16.2,18.3c3.3-2.9,7.1-5.4,10.1-8.5c-4.7-6.5-10.6-12-16.7-17.2
		C90,671,86.7,673.4,83.6,676 M341.7,668.8c-0.1,12.7,0,25.4,0,38.1c18.2,0,36.2,0,54.4,0c0-12.7,0.1-25.4,0-38.1
		C378,668.9,359.9,668.9,341.7,668.8 M422.1,672.3c0,4.4,0,8.7,0,13.2c25.9,0.1,51.9,0,77.8,0c0-4.4,0-8.8,0-13.2
		C473.9,672.3,448,672.2,422.1,672.3 M256,702.3c3.2,4.3,6.2,8.7,8.8,13.3l0.5,0.2c3.5-1.7,6.8-3.6,10.1-5.4
		c-2.8-4.6-6-8.9-9.5-12.9C262.6,699,259.2,700.5,256,702.3 M412,698.7c-0.1,4.5-0.1,8.9,0,13.4c14,0,28.1,0,42.1,0
		c0.1,13.2,0,26.4,0,39.6c0.1,1.1-0.1,2.8-1.5,2.8c-5.7,0.3-11.5,0-17.3-0.1c1.9,4.5,3.7,9.1,4.6,14c5.1,0,10.1,0.1,15.1-0.5
		c3.7-0.6,7.7-1.4,10.6-4c2.8-2.8,2.9-7,3-10.7c0.1-13.7-0.1-27.3,0.1-41c13.8,0,27.6,0,41.4,0c0-4.5,0-8.9,0-13.4
		C477.5,698.7,444.7,698.7,412,698.7 M82,704.6c0,4.1-0.1,8.2,0.1,12.3c4.4,0,8.7-0.2,13.2,0.1c-0.1,9.7,0,19.5-0.1,29.2
		c-5.1,2.8-10,6.2-14,10.4c2.8,3.7,5.4,7.6,8.2,11.2c2.9-3.6,5.7-7.2,9.2-10.1c1.9-1.6,4.5-3.2,7.1-2.1c3.3,1.4,6.2,3.6,9.5,5.1
		c10.5,5.3,22.6,5.4,34.1,5.4c11-0.2,21.9-0.4,32.8-1.2c0.5-4.4,1.9-8.6,3.4-12.8c-9.8,1.1-19.7,1.8-29.6,2.2
		c-10.3,0.3-20.8,0.5-30.9-1.7c-6-1.2-11.1-4.6-16.3-7.4c-1.2-0.4-0.7-2.1-0.8-3c0.1-12.5,0-25,0.1-37.5
		C99.2,704.5,90.6,704.6,82,704.6 M213.4,709.3c-0.7,8.4-1.4,16.8-4,24.8c-1.1,3.5-2.5,6.8-4.9,9.7c-0.1-10.7,0-21.3-0.1-31.9
		c-3.5,0-7.1,0-10.6,0c0,17.6,0,35.1,0,52.6c11.8-0.5,23.5-1.5,35.3-2.2c0,1.8,0,3.6,0,5.4c3.4-0.1,6.8-0.1,10.2,0
		c0.1-18.8,0-37.6,0-56.4c-3.5,0-6.8,0-10.3,0c0,10.4,0.1,20.7-0.1,31c-2.2-3.7-4.5-7.3-7.1-10.7c-0.4-0.9-1.5-1.5-1.4-2.6
		c1.2-6.2,2.1-12.5,2.4-18.8C220,709.8,216.7,709.5,213.4,709.3 M336.4,711.8c0,3.5-0.1,7.1,0,10.7c8.6,0,17.2,0.1,25.8,0
		c0.1,9.6,0.1,19.1,0,28.7c-4.5-3-7.7-7.8-9.3-12.9c0.7-3.7,1.5-7.3,2-11c-4-0.5-8-1.2-12.1-1.3c-1.4,12.6-5.1,25.9-15.3,34.4
		c3.5,2.4,6.6,5.1,9.6,7.9c5.1-4.7,8.6-10.8,11.6-16.9c4,6.8,10.4,12.3,18.2,14c11.1,2.6,22.6,1,34,1.5c0.7-4,1.8-7.9,3.5-11.5
		c-9.9-0.1-19.8,0.2-29.8-0.1c-0.1-4.3-0.1-8.5,0-12.8c6.8,0.1,13.7,0.1,20.5,0l0.4-0.4c0.1-3.2-0.1-6.4,0.1-9.6
		c-7-0.3-14-0.1-21-0.1c-0.1-3.2-0.1-6.5,0-9.8c8.9,0.1,17.8,0.1,26.7,0c0-3.5,0.1-7.1,0-10.7C379.9,711.8,358.1,711.8,336.4,711.8
		 M244.6,716.6c-0.3,3.8-0.1,7.7-0.1,11.5c10,0,20,0,30,0c-3.3,5.6-7.1,10.8-11.2,15.8c-4-3.1-8-6.2-12.1-9.3
		c-2.5,2.8-4.6,5.9-7,8.8c10.3,8.5,20.8,16.5,30.4,25.7c2.4-3.5,4.9-6.8,7.3-10.3c-2.9-2.6-5.8-5-8.7-7.3
		c7.2-9.5,14.2-19.2,19.3-29.9c-3-1.9-6-3.8-8.9-5.7c-3.1,1-6.4,0.7-9.6,0.7C264.3,716.6,254.4,716.7,244.6,716.6 M479.8,724.7
		c4.5,7.3,9,14.7,12.6,22.6c1.8,3.6,2.9,7.5,4.6,11.1c4.6-1.7,9-3.9,13.6-6c-4.2-11.9-11.1-22.6-18.3-32.9
		C488,721.2,483.9,723.1,479.8,724.7 M427.7,720c-4.1,11.3-10.4,22-19.2,30.4c4.3,2.4,8.4,5.1,12.3,7.9c9-10.1,16.1-22,20.9-34.6
		C437.1,722.4,432.4,721.2,427.7,720z"/>
	<path fill="#FFFFFF" d="M216.8,222c37.5,0.1,75,0,112.5,0c5.6,0,11.1,1.6,15.8,4.5c8.7,5.2,14.6,15.2,14.6,25.4
		c0,20.8,0,41.6,0,62.5c-0.4,14.9-13.3,28.1-28.2,28.8c-13,0.1-26,0-39,0.1c-8.9,0.1-17.9-0.4-26.8,1c-4.3,0.7-8.5,2.2-11.4,5.5
		c-3.8,4.1-4.3,10.1-4.6,15.4c-0.1,8.5,0,17.1-0.1,25.7c0.1,4-0.2,8.2,0.2,12.2c21.8-0.1,43.7,0,65.4-0.1c14.7,0.1,29.3-0.1,44,0.1
		c0,9.8,0.1,19.7,0,29.5c-48.4,0-96.8,0.1-145.1-0.1c0-22.3,0.1-44.5,0-66.8c-0.1-12.4,2.2-25.5,9.4-35.9
		c5.2-7.8,13.5-13.5,22.8-15.2c8.5-1.4,17.1-1.5,25.6-1.5c13.7,0,27.4,0,41.2,0c3.7,0.2,7.5-1.7,9.4-4.9c1.5-2.4,1.5-5.2,1.4-7.9
		c-0.1-12.7,0-25.5,0-38.2c0.1-5.4-4.7-10.1-10.1-10c-32.4-0.2-64.8,0.1-97.2-0.1C216.6,242,216.4,232,216.8,222z"/>
	<path fill="#FFFFFF" d="M150.7,224c1-0.8,2.4-0.7,3.7-0.7c10.8,0.1,21.5,0,32.3,0.1c0,69.8,0,139.6,0,209.4c-11.5,0-23,0-34.5,0
		c-0.1-58.1,0.1-116.3-0.1-174.3c-3,0.4-5.2,2.7-7.8,4.1c-7.2,4.2-14.4,8.3-21.8,12.1c-2.9,1.8-6,3.5-9.3,4.8
		c-0.1-10.6,0-21.2-0.1-31.7C126.9,241.9,138.8,232.8,150.7,224z"/>
	<path fill="#FFFFFF" d="M427.7,277.6c-0.3-2.4,2.1-4.7,4.4-4.4c5.4,0,10.8,0,16.2,0c2.4-0.3,4.7,2.1,4.4,4.4c0,12-0.1,24,0,36
		c11.2,0.1,22.6,0,33.8,0c2.4-0.3,4.7,2.1,4.4,4.4c-0.1,5.8,0.2,11.6-0.1,17.4c-1,1-1.9,2.6-3.5,2.4c-11.5,0.1-23-0.1-34.5,0
		c-0.1,12,0,24,0,36c0.3,2.4-2.1,4.7-4.4,4.4c-5.4,0-10.8,0-16.2,0c-2.4,0.3-4.7-2.1-4.4-4.4c0-12,0.1-24,0-36
		c-11.7-0.1-23.4,0.1-35.1-0.1c-1.9-0.8-4-2.7-3.8-5.1c0.1-5.3-0.2-10.7,0.2-15.9c1.3-1.5,2.6-3.6,4.9-3.2c11.2,0,22.6,0.1,33.8,0
		C427.7,301.6,427.7,289.6,427.7,277.6z"/>
	<path fill="#FFFFFF" d="M130.6,543.6c8.7-6.2,20-8.5,30.5-6.7c4.2,0.7,8.1,2.5,12.2,3.5c0.7-1,1.5-2,2.3-2.9
		c1.1,0.1,2.3,0.2,3.4,0.3c-0.1,7.9,0.4,15.7,0.4,23.5c-0.1,1.9-2.3,2-3.7,1.8c-2.4-6.2-4.2-13-9.3-17.5c-6-6.2-16.8-6.2-23.1-0.5
		c-6.7,5.7-10.3,14.4-11.2,23c-0.7,8.1-0.2,16.5,3.3,24c2.9,6.2,8.6,11.2,15.4,12.5c6.5,1.2,14,0.5,19.3-4c4.1-3.7,5.4-9.3,6.5-14.4
		c1.3,0.1,2.6,0.3,4,0.4c-0.4,6.5-2.4,13.4-7.3,17.9c-5.4,5-13.2,6.8-20.4,6.8c-9.5,0-19.5-2.7-26.4-9.6
		c-8.1-7.9-10.9-19.8-9.8-30.7C117.3,560.4,121.9,549.8,130.6,543.6z"/>
	<path fill="#FFFFFF" d="M218.7,539.3c0.7-2.4,3.7-1,5.5-1.2c7.9,19.1,15.7,38.1,23.7,57.2c1.2,2.8,2.4,5.7,4.7,7.9
		c2.2,2,5.4,2,8.2,2.5c0.2,1.5,0.4,3.9-1.8,4c-10.5,0.1-20.9,0-31.5,0c-2.3,0.3-2.7-2.4-2.4-4c2.7-0.5,6.1-0.3,8.1-2.6
		c1.7-1.8,1.1-4.6,0.4-6.6c-1.8-4.8-3.9-9.5-5.7-14.3c-6.7-0.1-13.4,0-20.1-0.1c-1.5,3.8-3.1,7.7-4.6,11.6c-1,2.8-2,6.2-0.2,8.9
		c1.5,2.4,4.5,2.6,6.9,3c-0.1,1,0.4,2.3-0.4,3.1c-0.7,1.2-2.3,0.8-3.4,1c-6.6-0.1-13.2,0.1-19.8-0.1c-1.9-0.2-1.9-2.5-1.8-4
		c2.4-0.4,5-0.7,6.8-2.4c3.7-3.5,5.6-8.5,7.5-13.1C205.6,573.2,212.2,556.2,218.7,539.3 M209.8,576.9c5.2,0.1,10.4,0.1,15.7,0
		c-2.4-6.8-5.3-13.2-7.9-19.9C214.6,563.4,212.4,570.2,209.8,576.9z"/>
	<path fill="#FFFFFF" d="M266.3,538.2c1.8-0.3,3.7-0.1,5.6-0.2c11,0.1,22-0.1,33.1,0.1c8.9,0.4,17.9,3.5,24.2,10
		c8.3,8.1,12,20.2,11,31.6c-0.7,9.5-4.9,19.2-12.9,24.5c-7.2,4.9-16.2,5.1-24.5,5.4c-12.2,0-24.4,0.1-36.6-0.1
		c-0.8-1.2-1.2-2.6-1.2-4c2.6-0.4,5.7-0.1,7.9-2.1c2.6-2.2,2.6-5.9,2.9-9c0.1-13.4,0-27,0-40.4c-0.1-3.1,0-6.6-2.1-9.1
		c-2.1-2.4-5.5-2.4-8.4-2.9C265.4,540.7,265.1,539,266.3,538.2 M289.8,542.9c0.1,16.7,0,33.4,0,50.1c0.1,3.3,0.3,7,2.8,9.5
		c2.5,2.5,6.2,2.9,9.5,2.8c4.9,0,9.8-1.3,13.4-4.7c6.9-6.3,9.9-16,9.7-25.2c0-10.9-4.6-22.3-13.8-28.5
		C305.1,542.5,297.1,542.2,289.8,542.9z"/>
	<path fill="#FFFFFF" d="M344.7,540.5c-0.2-1.5,1.4-2.8,2.8-2.6c9.8,0,19.6,0,29.4,0c4.3,0.1,8.6,0.1,12.8,1.1
		c6.8,1.9,12.6,7.8,13.8,14.9c0.8,5,0.3,10.7-2.9,14.8c-3.2,4.2-8.5,6.3-13.7,6.8c-5.8,0.4-11.6,0.1-17.4,0.4
		c-0.1,6.2,0,12.3-0.1,18.4c0.1,3,0.1,6.5,2.4,8.7c2.1,2.2,5.3,2.1,8.1,2.5c0,1.5,0,4.3-2.3,4c-10.2,0-20.5,0.1-30.7,0
		c-2-0.1-2.3-2.4-2.3-4c2.9-0.4,6.4-0.4,8.5-2.8c2.3-2.4,2.1-6.1,2.3-9.2c0.1-13.2,0-26.5,0-39.8c-0.1-3.6-0.1-8-3.4-10.3
		C349.7,542.1,346.2,543,344.7,540.5 M369.4,542.7c-0.1,9.5-0.1,18.9,0,28.4c4.4,0,9.3,0.5,13.2-1.8c7.9-5.2,7.9-18.2,0.8-24
		C379.5,541.9,374.1,542.6,369.4,542.7z"/>
	<path fill="#FFFFFF" d="M442.6,537.9c1.6,0,3.2,0,4.9,0.1c7.8,18.7,15.5,37.4,23.3,56.1c1.3,2.9,2.5,6.1,4.7,8.5
		c2.3,2.5,5.9,2.4,8.9,3c0,1.5-0.1,4-2.2,4c-10.5,0.1-21,0.1-31.5,0c-2.2,0.3-2.4-2.4-2.2-4c3-0.5,6.9-0.4,8.7-3.4
		c1.2-2.7-0.1-5.6-1.1-8.1c-1.7-4-3.3-8-4.9-12c-6.7-0.1-13.4-0.1-20.1,0c-1.5,4.1-3.2,8.1-4.7,12.2c-0.9,2.7-1.8,6.1,0.3,8.6
		c1.6,2.2,4.5,2.3,6.9,2.8c-0.1,1.5-0.2,3.7-2.2,3.8c-7.1,0.1-14.1,0.1-21.2,0c-2.2,0.3-2.3-2.4-2.3-4c2.2-0.4,4.6-0.5,6.3-2.1
		c3.5-2.9,5.4-7.2,7.1-11.3C428.7,574.2,435.4,555.9,442.6,537.9 M440.7,556.9c-2.5,6.6-5.1,13.2-7.6,19.9c5.2,0.1,10.4,0.1,15.7,0
		C446.3,570.1,443.7,563.4,440.7,556.9z"/>
	<path fill="#FFFFFF" d="M354,677.9c9.8,0,19.7-0.1,29.5,0c0,1.8,0,3.5,0,5.3c-9.8,0.1-19.7,0-29.5,0
		C353.9,681.5,353.9,679.7,354,677.9z"/>
	<path fill="#FFFFFF" d="M354,692.1c9.8,0,19.7,0,29.5,0c0,1.8,0,3.5,0,5.3c-9.8,0.1-19.7,0.1-29.5,0
		C353.9,695.7,353.9,693.9,354,692.1z"/>
	<path fill="#FFFFFF" d="M133.8,723c10.2,0,20.4-0.1,30.6,0.1c-0.1,4.4-0.1,8.7,0,13.2c-10.2,0.1-20.4,0-30.6,0.1
		C133.8,731.8,133.8,727.4,133.8,723z"/>
	<path fill="#FFFFFF" d="M210.8,752.6c2.8-3.5,4.9-7.4,6.6-11.5c2,3.1,3.7,6.2,5.4,9.6c2.1-1.9,4.3-3.9,6.5-5.8c0,2.5,0,5,0,7.5
		c-8.2,0.6-16.5,0.9-24.7,1.2c0-2.4,0-4.7,0-7.1C206.9,748.3,208.8,750.6,210.8,752.6z"/>
</g>
</svg>
