<?xml version="1.0" encoding="utf-8"?>
<!-- Generator: Adobe Illustrator 18.0.0, SVG Export Plug-In . SVG Version: 6.00 Build 0)  -->
<!DOCTYPE svg PUBLIC "-//W3C//DTD SVG 1.1//EN" "http://www.w3.org/Graphics/SVG/1.1/DTD/svg11.dtd">
<svg version="1.1" id="图层_1" xmlns="http://www.w3.org/2000/svg" xmlns:xlink="http://www.w3.org/1999/xlink" x="0px" y="0px"
	 viewBox="0 39.5 595.3 762.9" enable-background="new 0 39.5 595.3 762.9" xml:space="preserve">
<g id="_x23_050505ff">
	<path fill="#050505" d="M40.7,39.5h513.1c7.7,1.8,15.5,4.3,22,9.2c10.6,7.5,16.8,19.6,19.5,32.1v680.1c-1.5,5.1-2.6,10.4-5.1,15.1
		c-5.3,10.7-14.8,19.2-25.9,23.4c-3.4,1.2-7,2-10.4,3.1H41.4c-4.2-1.2-8.5-2.1-12.6-3.9c-11.6-5-21.1-14.8-25.6-26.6
		c-1.4-3.5-2.1-7.3-3.2-11V80.9c1.3-5.1,2.5-10.4,5-15.1C9.6,56.3,17.7,48.6,27.2,44C31.5,42,36.2,41,40.7,39.5 M42.2,54.7
		C26.8,57,14.4,71.6,14.7,87.2c0,222.2,0,444.4,0,666.6c-0.1,4.3,0.7,8.5,2.1,12.4c4.6,12.6,17.4,21.5,30.9,21.4
		c166.4,0,332.7,0,499,0c4,0,8.1-0.6,11.9-2c12.9-4.5,22-17.5,21.9-31.1c0-222.5,0-444.9,0-667.4c0.1-11-5.8-21.7-15-27.6
		c-5.5-3.7-12.2-5.5-18.8-5.4c-166.1,0-332.2,0-498.3,0C46.4,54.2,44.2,54.3,42.2,54.7z"/>
	<path fill="#050505" d="M240,697.7c9.8-9.1,17.3-20.5,22.1-32.9c4,1.2,7.9,2.4,11.8,3.6c-0.4,1-0.8,2.1-1.2,3.2
		c6,11,14,20.7,23.8,28.4c-3.6,3.2-6.9,6.5-9.8,10.4c-8.1-7.7-14.5-17-19.9-26.6c-5.4,9.9-12.5,19-21,26.5c-1.3-1.6-2.7-3.2-4.2-4.6
		c-0.1,0.6-0.2,1.7-0.2,2.2c-16.6-0.1-33.3,0-49.9-0.1c0-3.4,0-6.8,0-10.1c1.8,0,3.6,0,5.4,0c0-8.5,0-17.1,0-25.6
		c3.6,0,7.2,0,10.8,0c0,8.5-0.1,17,0,25.6c1.9,0,3.9,0,5.8,0c0-10.5,0-20.9,0-31.5c3.8,0,7.6,0,11.5,0c0,4,0,7.9,0,11.9
		c5.2,0,10.4,0,15.6,0c0,3.5,0,6.8,0,10.3c-5.2,0-10.4,0-15.6,0c0,3.1,0,6.2,0,9.3C230,697.7,235,697.7,240,697.7z"/>
	<path fill="#050505" d="M117.8,672.7c18-1.2,36-3,53.6-7c2.4,3.5,4.3,7.2,6.5,10.9c-7.3,1.8-14.7,2.9-22.1,3.9c0,3.5,0,7.1,0,10.5
		c9.5,0,19,0,28.4,0c0,3.8,0,7.6,0,11.5c-9.5,0-19,0-28.4,0c0,3.4,0,6.8,0,10.1c7.2,0,14.4,0,21.6,0c0,11.4,0,22.7,0,34.1
		c-18.7,0-37.4,0-56.1,0c0-11.4,0-22.7,0-34.1c7.1,0,14.1,0,21.2,0c0-3.4,0-6.8,0-10.1c-9.7,0-19.3,0-29,0c0-3.8,0-7.7,0-11.5
		c9.7,0,19.3,0,29,0c0-3.1,0-6.1,0-9.2c-7.1,0.4-14.2,1.2-21.3,1.2C120.4,679.3,119.3,675.9,117.8,672.7 M133.8,723
		c0,4.4,0,8.8,0,13.2c10.2,0,20.4,0,30.6,0c0-4.4,0-8.8,0-13.2C154.1,723,144,723,133.8,723z"/>
	<path fill="#050505" d="M312.6,665.4c3.9,0,7.7-0.1,11.5,0l0.4,0.4c0.1,6.8,0,13.5,0.1,20.3c3.7,0,7.3,0,11,0c0,4,0,8.1,0,12.2
		c-3.7,0-7.3,0-11,0c-0.1,5.4,0,10.9,0,16.3c3.3-0.9,6.6-1.8,9.9-2.6c0.7,4,1.2,7.9,1.8,11.9c-3.9,1.2-7.8,2.4-11.7,3.5
		c0,7.9,0,15.7,0,23.5c0,3.1,0.1,6.2-0.8,9.2c-0.8,2.6-3.2,4.4-5.6,5.3c-4.2,1.5-8.7,1.4-13.1,1.4c-0.7-4.1-1.8-8.2-3.5-12.1
		c3.6,0,7.2,0.1,10.8-0.2c0.4-7.9,0.1-15.7,0.1-23.7c-3.4,0.9-6.7,1.9-10.1,2.9c-1-4.3-2.1-8.5-3-12.9c4.4-0.9,8.7-2.1,13.1-3.2
		c0-6.5,0-13,0-19.5c-4,0-8,0-12,0c0-4,0-8.2,0-12.2c4,0,8,0,12,0C312.6,679.2,312.6,672.3,312.6,665.4z"/>
	<path fill="#050505" d="M83.5,676c3.2-2.5,6.5-5,9.7-7.5c6.2,5.2,12.1,10.9,16.9,17.4c-3.5,2.8-6.8,5.6-10.3,8.4
		C95.2,687.4,89.4,681.6,83.5,676z"/>
	<path fill="#050505" d="M341.7,668.8c18.2,0,36.2,0,54.4,0c0,12.7,0,25.4,0,38.1c-18.2,0-36.2,0-54.4,0
		C341.7,694.3,341.7,681.5,341.7,668.8 M354,677.9c0,1.8,0,3.6,0,5.4c9.8,0,19.7,0,29.5,0c0-1.8,0-3.6,0-5.4
		C373.6,677.9,363.8,677.9,354,677.9 M354,692.1c0,1.8,0,3.6,0,5.4c9.8,0,19.7,0,29.5,0c0-1.8,0-3.6,0-5.4
		C373.6,692.1,363.8,692.1,354,692.1z"/>
	<path fill="#050505" d="M422.1,672.3c25.9,0,51.9,0,77.8,0c0,4.4,0,8.8,0,13.2c-25.9,0-51.9,0-77.8,0
		C422.1,681.1,422.1,676.7,422.1,672.3z"/>
	<path fill="#050505" d="M255.9,702.2c3.3-1.6,6.7-3.2,10.1-4.8c3.5,4.1,6.7,8.4,9.5,12.9c-3.5,1.8-6.9,3.7-10.4,5.5
		C262.2,711.2,259.4,706.5,255.9,702.2z"/>
	<path fill="#050505" d="M412,698.7c32.7,0,65.5,0,98.2,0c0,4.5,0,8.9,0,13.4c-13.8,0-27.7,0-41.5,0c0,12.7,0,25.4,0,38.1
		c-0.1,3.8,0.2,7.9-1.5,11.5c-1.5,3-4.9,4.5-7.9,5.3c-6.3,1.6-12.9,1.2-19.3,1.3c-1-4.9-2.6-9.6-4.6-14c5.8,0.2,11.6,0.4,17.4,0.2
		c1.1,0,1.7-1.1,1.6-2.1c0.1-13.4,0-26.8,0-40.3c-14,0-28.1,0-42.2,0C412,707.6,412,703.2,412,698.7z"/>
	<path fill="#050505" d="M82,704.6c8.6,0,17.2,0,25.8,0c0.1,13.4-0.1,26.8,0.1,40.1c3.6,2,7.1,4.1,11,5.8c6.1,2.6,12.9,3.3,19.4,3.7
		c15.8,0.6,31.5-0.5,47.3-2.2c-1.6,4.2-2.9,8.5-3.5,12.9c-11,0.7-21.9,1-32.8,1.2c-11.3,0-23.1-0.1-33.6-5.1
		c-3.5-1.5-6.5-3.8-10.1-5.4c-2.1-1-4.5,0.1-6.2,1.5c-3.9,3.1-7,7-10,10.9c-2.8-3.7-5.5-7.6-8.2-11.3c4.2-4.1,8.9-7.6,14-10.4
		c0-9.8,0-19.5,0-29.3c-4.4-0.1-8.8,0-13.2,0C82,712.8,82,708.7,82,704.6z"/>
	<path fill="#050505" d="M213.4,709.3c3.3,0.4,6.5,0.6,9.8,0.9c-0.4,6.5-1.3,13-2.5,19.4c2.9,4.2,6,8.3,8.5,12.8
		c0-10.4,0-20.7,0-31.1c3.5,0,6.8,0,10.3,0c0,18.7,0,37.6,0,56.4c-3.5,0-6.8,0-10.3,0c0-1.8,0-3.6,0-5.4
		c-11.8,0.8-23.5,1.7-35.3,2.3c0-17.6,0-35.1,0-52.7c3.5,0,7.1,0,10.6,0c0.1,10.7-0.1,21.5,0.1,32.2
		C211.6,733.9,212.4,721.1,213.4,709.3 M210.8,752.7c-1.9-2.2-4-4.3-6.2-6.2c0,2.4,0,4.8,0,7.1c8.2-0.4,16.5-0.7,24.7-1.2
		c0-2.5,0-5.1,0-7.6c-2.1,2-4.3,4-6.5,6c-1.6-3.3-3.5-6.5-5.4-9.7C215.8,745.2,213.5,749.2,210.8,752.7z"/>
	<path fill="#050505" d="M336.4,711.8c21.7,0,43.4,0,65.1,0c0,3.6,0,7.1,0,10.7c-8.9,0-17.9,0-26.8,0c0,3.2,0,6.5,0,9.7
		c7.1,0,14,0,21.1,0c0,3.4,0,6.8,0,10.1c-7.1,0-14,0-21.1,0c0,4.3,0,8.5,0,12.7c9.9,0.4,19.8,0.1,29.8,0.2
		c-1.8,3.6-2.9,7.6-3.5,11.5c-11.1-0.4-22.4,1-33.4-1.3c-8.1-1.7-15-7.2-19-14.4c-2.7,6.4-6.5,12.3-11.5,17.2
		c-3-2.9-6.2-5.6-9.7-7.9c10.3-8.4,13.9-22,15.4-34.6c4,0.5,8,1,12,1.5c-0.5,3.7-1.2,7.4-2,11.1c1.6,5.1,4.9,9.8,9.3,12.9
		c0.1-9.6,0-19.1,0-28.7c-8.6,0-17.3,0-25.9,0C336.4,719,336.4,715.4,336.4,711.8z"/>
	<path fill="#050505" d="M244.4,716.6c11.6,0.1,23.2,0,34.8,0c1.5,0.1,2.9-0.4,4.3-0.7c3,1.9,6,3.9,9,5.8
		c-5.3,10.7-12.1,20.5-19.5,29.8c3,2.4,6,4.9,8.8,7.4c-2.5,3.5-5,6.9-7.5,10.4c-9.4-9.4-20.1-17.3-30.4-25.8c2.4-2.9,4.6-6,6.9-8.9
		c4.1,3.1,8.2,6.2,12.2,9.4c4-5.1,7.8-10.4,11.2-15.9c-10,0-20.1,0-30.1,0C244.4,724.3,244.4,720.4,244.4,716.6z"/>
	<path fill="#050505" d="M479.7,724.8c4.2-1.7,8.3-3.5,12.5-5.2c7.2,10.3,14.1,21,18.4,32.9c-4.6,2.1-9.2,4-13.7,6.1
		C493,746.5,486.6,735.4,479.7,724.8z"/>
	<path fill="#050505" d="M427.7,720c4.6,1.2,9.3,2.4,14,3.7c-4.9,12.6-11.9,24.5-20.9,34.7c-3.9-2.9-8-5.7-12.3-7.9
		C417.3,742,423.7,731.4,427.7,720z"/>
</g>
<g id="_x23_ffb540ff">
	<path fill="#FFB540" d="M61.7,113.7c7.6-7,17.7-11,28-11c136.7,0,273.4,0,410.1,0c6.6-0.1,13.4,0,19.7,2.4
		c16,5.5,27.6,21.8,27.3,38.7c0,167.8,0,335.6,0,503.4c-166.1,0-332.2,0-498.3,0c0-167.8,0-335.6,0-503.4
		C48.4,132.6,53.4,121.3,61.7,113.7 M141.7,229.7c-9.3,6.5-18.5,13.2-29.2,17.2c-0.1,11.2-0.1,22.5,0,33.7
		c13.2-6.9,26.5-13.7,39-21.8c0.1,58.1,0,116.3,0.1,174.4c11.9-0.1,23.7,0,35.6,0c-0.1-70.2-0.1-140.4,0-210.6
		c-11.7,0-23.3-0.1-35,0.1C148.2,224.1,145.3,227.5,141.7,229.7 M231.9,225.2c-11.3,4.8-19.4,16.5-19.4,29c-0.1,48.8,0,97.5,0,146.3
		c-0.1,4.9,0.5,9.8,2.6,14.3c4.6,10.9,15.7,18.5,27.4,19c28.1,0.4,56.4,0.6,84.5,0.6c6.1-0.1,12.4,0.6,18.3-1.5
		c12.3-3.9,21.9-16.2,21.4-29.2c-0.1-22.6,0-45.1-0.1-67.7c-0.7-13.7-13.5-25.3-27.2-25.2c-27.6-0.1-55.1-0.1-82.8,0
		c0-16.3-0.2-32.6-0.1-48.9c0.1-5.8,5.8-10.3,11.5-9.8c30.6,0.9,61.1,0.7,91.6,0.7c0-9.9-0.1-19.9,0-29.8c-38.1-0.1-76.3,0-114.4,0
		C240.8,222.4,236.2,223.3,231.9,225.2 M427.2,276.9c-0.1,12.1,0,24.3,0,36.4c-11.3,0.1-22.6,0-34,0c-2.3-0.3-4.7,1.7-4.6,4
		c-0.1,5.7-0.1,11.3,0,17c-0.1,2.4,2.3,4.3,4.6,4c11.3,0,22.6-0.1,34,0c0.1,12.1,0,24.3,0,36.4c-0.2,2.3,1.9,4.5,4.2,4.3
		c5.9,0.1,11.8,0.1,17.6,0c2.2,0.1,4.2-2.1,4-4.3c0-12.1,0-24.3,0-36.4c11.4-0.1,22.8,0,34.2-0.1c2.2,0.2,4.5-1.8,4.4-4
		c0.1-5.7,0.1-11.3,0-17c0.1-2.3-2.2-4.3-4.4-4c-11.4-0.1-22.8,0.1-34.2-0.1c0.1-11.6,0-23.2,0.1-34.9c-0.1-1.5,0.2-3.3-1.1-4.3
		c-1.2-1.7-3.4-1.4-5.1-1.4c-5.1,0.1-10.4-0.1-15.5,0.1C429,272.4,426.9,274.6,427.2,276.9 M138.1,543.6c-8.7,6.2-13.2,16.8-14,27.3
		c-1,11,1.8,22.9,9.8,30.8c7.2,7.3,17.9,10,27.9,9.6c7.4-0.2,15.4-2.5,20.4-8.3c4-4.5,5.3-10.5,6-16.3c-1.3-0.1-2.7-0.4-4.1-0.5
		c-1,5.1-2.4,10.8-6.5,14.4c-5.3,4.5-12.8,5.2-19.3,4c-7.2-1.3-13.1-6.8-15.9-13.4c-3.2-7.6-3.7-16.1-2.7-24.3
		c1.2-8.9,5.3-17.8,12.8-23.1c6.5-4.3,15.9-3.9,21.5,1.8c5.3,4.6,7.1,11.6,9.6,17.9c1.5-0.4,4-0.7,3.6-2.9
		c-0.1-7.6-0.5-15.3-0.5-22.9c-1.2-0.1-2.3-0.1-3.4-0.2c-0.7,1-1.4,2-2.1,3c-4.5-1.3-8.9-3.1-13.5-3.7
		C157.1,535.2,146.5,537.6,138.1,543.6 M222.5,539.9c-6.7,17-13.2,34.2-20,51.3c-1.8,4.3-3.6,8.8-7.1,12.1c-1.9,1.8-4.7,2.1-7.1,2.6
		c0.5,1.5,0.6,4.1,2.8,3.8c6.8,0.1,13.7,0.1,20.5,0c2.2,0.3,2.3-2.3,2.7-3.7c-2.5-0.7-5.7-0.8-7.3-3.2c-1.8-2.5-0.8-5.7,0-8.4
		c1.5-4.1,3.2-8.1,4.6-12.1c6.7,0,13.4-0.1,20.1,0.1c1.8,4.8,3.9,9.4,5.7,14.2c0.7,2.1,1.4,4.9-0.3,6.7c-2.2,2.3-5.6,2.1-8.5,2.7
		c0.4,1.5,0.5,4.2,2.8,3.9c9.8,0.1,19.6,0,29.4,0.1c1.2-0.1,2.8,0.2,3.6-1c1-0.9,0.3-2.2,0-3.2c-2.4-0.6-4.9-0.6-7.1-1.8
		c-2.8-2.1-4.1-5.5-5.5-8.5c-7.9-19.1-15.9-38.1-23.7-57.3C226.1,538.1,223.1,537.1,222.5,539.9 M265.9,538
		c-0.3,1.2-0.5,2.5-0.8,3.8c2.9,0.6,6.5,0.6,8.6,3c2.1,2.6,1.9,6,2.1,9.1c0,13.2,0,26.5,0,39.7c-0.1,3.4-0.1,7.4-2.9,9.8
		c-2,1.9-4.9,1.5-7.4,2.1c-0.7,1.3,0.2,2.7,0.4,4c11.6,0.1,23.1,0,34.8,0.1c6.6,0,13.4-0.3,19.8-2.1c7.6-2.2,13.8-8.2,16.9-15.4
		c4.3-9.9,4.1-21.6,0.1-31.6c-3.7-9.3-11.3-17.1-20.9-20.3c-7-2.4-14.5-2.2-21.8-2.3C285.1,538,275.5,537.8,265.9,538 M347,541.3
		c2.4,1.5,5.7,1.1,7.7,3.3c2.2,2.6,2.1,6.1,2.2,9.3c0.1,12.1,0,24,0,36.1c-0.1,3.9,0.3,8.1-1.4,11.7c-1.9,3.5-6.3,3.6-9.8,4.1
		c0.5,1.2,0.7,2.6,1.6,3.5c1.2,0.6,2.6,0.4,3.8,0.4c9.8-0.1,19.7,0.1,29.6-0.1c0.3-1.2,0.5-2.6,0.8-3.8c-2.8-0.4-6-0.4-8.2-2.6
		c-2.3-2.3-2.4-5.7-2.4-8.7c0-6.2,0-12.3,0-18.5c5.8-0.1,11.7,0.1,17.5-0.3c5.1-0.5,10.4-2.6,13.7-6.8c3.1-4,3.7-9.3,3.1-14
		c-1-8-7.9-14.8-15.8-16c-4.3-0.7-8.7-0.7-13.1-0.7c-9,0.1-18.1-0.1-27.2,0C347.5,537.6,345,540.1,347,541.3 M438.8,537.9
		c-6.8,17.4-13.5,34.9-20.4,52.3c-1.8,4.5-3.6,9.3-7.1,12.7c-1.9,2-4.9,2.3-7.4,2.9c0.5,1.4,0.4,4,2.6,3.8c6.8,0.1,13.7,0.1,20.5,0
		c2.2,0.4,2.5-2.2,3.1-3.7c-2.6-0.7-5.9-0.9-7.5-3.4c-1.7-2.5-0.8-5.6,0-8.2c1.5-4.1,3.2-8.1,4.6-12.2c6.7,0,13.4,0,20.1,0
		c1.8,4.8,3.9,9.4,5.7,14.2c0.7,2.2,1.5,5-0.4,6.8c-2.2,2.1-5.4,2-8.2,2.6c0.3,1.2,0.5,2.6,0.8,3.8c9.1,0.2,18.2,0,27.3,0.1
		c2.3,0,4.6,0.1,6.9-0.3c0.8-1,1-2.4,1.4-3.6c-3-0.7-6.5-0.6-8.9-2.8c-2.4-2.4-3.5-5.4-4.9-8.4c-7.9-18.9-15.7-37.8-23.4-56.7
		C442.1,537.9,440.4,537.9,438.8,537.9z"/>
	<path fill="#FFB540" d="M257.1,340.3c19.4,0.1,38.8,0.3,58.2,0.3c3.5-0.1,7.1,1.2,9.4,3.9c2.1,2.4,2.8,5.6,2.7,8.7
		c-0.1,12.1,0,24,0,36.1c0.1,4.6-2.6,9.2-6.7,11.3c-3.5,1.9-7.6,1.4-11.3,1.5c-12.8-0.1-25.5-0.1-38.3-0.2c-4,0.1-8.2-1.5-10.6-4.8
		c-2.4-2.7-2.9-6.5-2.8-9.9C257.4,371.6,257.3,355.9,257.1,340.3z"/>
	<path fill="#FFB540" d="M289.8,542.6c6.7-0.1,13.8-0.4,19.8,3.1c8.4,4.6,13.5,13.8,15,23.1c1.8,10.7-0.3,22.6-8,30.6
		c-3.2,3.5-7.8,5.4-12.4,5.7c-3.4,0.2-7,0.3-9.9-1.4c-2.3-1.2-3.7-3.7-4-6.2c-0.6-3.5-0.4-7-0.4-10.4
		C289.8,572.3,289.8,557.4,289.8,542.6z"/>
	<path fill="#FFB540" d="M371,542.6c4.6,0,9.7-0.7,13.6,2.3c7.5,5.7,7.8,19.1-0.4,24.4c-4,2.4-8.8,1.8-13.2,1.9
		C371,561.7,371,552.1,371,542.6z"/>
	<path fill="#FFB540" d="M213.8,576.9c2.6-6.7,5-13.4,7.8-20.1c2.7,6.7,5.5,13.4,8.1,20.1C224.4,577,219.1,576.9,213.8,576.9z"/>
	<path fill="#FFB540" d="M436.9,556.8c2.9,6.6,5.5,13.4,8.2,20.1c-5.3,0.1-10.6,0-15.9,0C431.8,570.1,434.3,563.4,436.9,556.8z"/>
</g>
<g id="_x23_fefefeff">
	<path fill="#FEFEFE" d="M42.2,54.7c2.1-0.4,4.2-0.4,6.3-0.4c166.1,0,332.2,0,498.3,0c6.6-0.1,13.3,1.7,18.8,5.4
		c9.2,6,15.1,16.6,15,27.6c0,222.5,0,444.9,0,667.4c0.2,13.6-9,26.7-21.9,31.1c-3.8,1.4-7.9,2-11.9,2c-166.4,0-332.7,0-499,0
		c-13.4,0.2-26.2-8.8-30.9-21.4c-1.5-4-2.2-8.2-2.1-12.4c0-222.2,0-444.4,0-666.6C14.4,71.6,26.8,57.1,42.2,54.7 M61.7,113.7
		c-8.3,7.6-13.2,18.9-13.2,30.1c0,167.8,0,335.6,0,503.4c166.1,0,332.2,0,498.3,0c0-167.8,0-335.6,0-503.4
		c0.2-17-11.2-33.2-27.3-38.7c-6.3-2.4-13.2-2.5-19.8-2.4c-136.7,0-273.4,0-410.1,0C79.4,102.7,69.2,106.7,61.7,113.7 M240,697.7
		c-5,0-10,0-15,0c0-3.1,0-6.2,0-9.3c5.2,0,10.4,0,15.6,0c0-3.5,0-6.8,0-10.3c-5.2,0-10.4,0-15.6,0c0-4,0-7.9,0-11.9
		c-3.8,0-7.6,0-11.5,0c0,10.5,0,20.9,0,31.5c-1.9,0-3.9,0-5.8,0c-0.1-8.5,0-17,0-25.6c-3.6,0-7.2,0-10.8,0c0,8.5,0,17.1,0,25.6
		c-1.8,0-3.6,0-5.4,0c0,3.4,0,6.8,0,10.1c16.6,0,33.3-0.1,49.9,0.1c0.1-0.6,0.2-1.7,0.2-2.2c1.5,1.4,2.9,3,4.2,4.6
		c8.5-7.5,15.6-16.5,21-26.5c5.5,9.7,11.9,18.9,19.9,26.6c2.9-3.8,6.2-7.3,9.8-10.4c-9.8-7.7-17.9-17.5-23.8-28.4
		c0.4-1.1,0.8-2.1,1.2-3.2c-4-1.2-7.9-2.4-11.8-3.6C257.3,677.2,249.8,688.6,240,697.7 M117.8,672.7c1.5,3.3,2.6,6.8,3.3,10.3
		c7.1,0,14.2-0.7,21.3-1.2c0,3.1,0,6.1,0,9.2c-9.7,0-19.3,0-29,0c0,3.8,0,7.6,0,11.5c9.7,0,19.3,0,29,0c0,3.4,0,6.8,0,10.1
		c-7.1,0-14.1,0-21.2,0c0,11.4,0,22.7,0,34.1c18.7,0,37.4,0,56.1,0c0-11.4,0-22.7,0-34.1c-7.2,0-14.4,0-21.6,0c0-3.4,0-6.8,0-10.1
		c9.5,0,19,0,28.4,0c0-3.8,0-7.7,0-11.5c-9.5,0-19,0-28.4,0c0-3.5,0-7.1,0-10.5c7.4-1,14.8-2.1,22.1-3.9c-2.1-3.6-4.2-7.3-6.5-10.9
		C153.8,669.6,135.8,671.4,117.8,672.7 M312.6,665.4c0,6.9,0,13.8,0,20.7c-4,0-8,0-12,0c0,4,0,8.2,0,12.2c4,0,8,0,12,0
		c0.1,6.5,0,13,0,19.5c-4.3,1-8.7,2.3-13.1,3.2c1,4.3,2,8.5,3,12.9c3.4-0.9,6.7-1.9,10.1-2.9c-0.1,7.9,0.2,15.8-0.1,23.7
		c-3.6,0.4-7.2,0.2-10.8,0.2c1.6,3.8,2.8,7.9,3.5,12.1c4.4,0,8.9,0.1,13.1-1.4c2.4-1,4.9-2.7,5.6-5.3c1-2.9,0.9-6.1,0.8-9.2
		c0-7.9,0-15.7,0-23.5c3.9-1.2,7.8-2.4,11.7-3.5c-0.6-4-1.1-7.9-1.8-11.9c-3.3,0.9-6.6,1.8-9.9,2.6c0-5.4,0-10.9,0-16.3
		c3.7,0,7.3,0,11,0c0-4,0-8.1,0-12.2c-3.7,0-7.3,0-11,0c-0.1-6.8,0.1-13.5-0.1-20.3l-0.4-0.4C320.3,665.3,316.5,665.4,312.6,665.4
		 M83.5,676c6,5.7,11.8,11.5,16.3,18.3c3.5-2.7,6.8-5.6,10.3-8.4c-4.9-6.5-10.7-12.1-16.9-17.4C90,671,86.7,673.5,83.5,676
		 M341.7,668.8c0,12.7,0,25.4,0,38.1c18.2,0,36.2,0,54.4,0c0-12.7,0-25.4,0-38.1C378,668.8,359.9,668.8,341.7,668.8 M422.1,672.3
		c0,4.4,0,8.8,0,13.2c25.9,0,51.9,0,77.8,0c0-4.4,0-8.8,0-13.2C473.9,672.3,448,672.3,422.1,672.3 M255.9,702.2
		c3.4,4.3,6.3,9,9.2,13.7c3.5-1.8,6.9-3.7,10.4-5.5c-2.8-4.6-6-8.8-9.5-12.9C262.6,699,259.3,700.6,255.9,702.2 M412,698.7
		c0,4.5,0,8.9,0,13.4c14,0,28.1,0,42.2,0c0,13.4,0.1,26.8,0,40.3c0.1,1-0.5,2.1-1.6,2.1c-5.8,0.2-11.6,0.1-17.4-0.2
		c2.1,4.5,3.7,9.2,4.6,14c6.5-0.1,13,0.2,19.3-1.3c3.1-0.8,6.5-2.3,7.9-5.3c1.7-3.5,1.4-7.6,1.5-11.5c0-12.7,0-25.4,0-38.1
		c13.8,0,27.7,0,41.5,0c0-4.5,0-8.9,0-13.4C477.5,698.7,444.7,698.7,412,698.7 M82,704.6c0,4.1,0,8.2,0,12.3c4.4,0,8.8-0.1,13.2,0
		c0,9.8,0,19.5,0,29.3c-5.1,2.7-9.9,6.2-14,10.4c2.8,3.7,5.5,7.6,8.2,11.3c3.1-3.9,6.2-7.8,10-10.9c1.7-1.3,4-2.5,6.2-1.5
		c3.5,1.5,6.6,3.7,10.1,5.4c10.4,5.1,22.3,5.1,33.6,5.1c11-0.2,21.9-0.5,32.8-1.2c0.6-4.4,1.8-8.7,3.5-12.9
		c-15.7,1.7-31.5,2.8-47.3,2.2c-6.6-0.4-13.3-1-19.4-3.7c-3.7-1.7-7.3-3.8-11-5.8c-0.2-13.4,0-26.8-0.1-40.1
		C99.2,704.6,90.6,704.6,82,704.6 M213.4,709.3c-1,11.9-1.8,24.6-8.8,34.8c-0.1-10.7,0-21.5-0.1-32.2c-3.5,0-7.1,0-10.6,0
		c0,17.6,0,35.1,0,52.7c11.8-0.6,23.5-1.5,35.3-2.3c0,1.8,0,3.6,0,5.4c3.5,0,6.8,0,10.3,0c0-18.7,0-37.6,0-56.4c-3.5,0-6.8,0-10.3,0
		c0,10.4,0,20.7,0,31.1c-2.5-4.5-5.5-8.6-8.5-12.8c1.1-6.5,2.1-12.9,2.5-19.4C220,709.8,216.7,709.5,213.4,709.3 M336.4,711.8
		c0,3.6,0,7.1,0,10.7c8.6,0,17.3,0,25.9,0c0,9.6,0.1,19.1,0,28.7c-4.4-3.2-7.7-7.8-9.3-12.9c0.7-3.7,1.5-7.3,2-11.1
		c-4-0.5-8-1-12-1.5c-1.5,12.6-5.1,26.2-15.4,34.6c3.5,2.4,6.7,5.1,9.7,7.9c5-4.9,8.8-10.8,11.5-17.2c4,7.2,10.8,12.7,19,14.4
		c11,2.4,22.3,1,33.4,1.3c0.7-4,1.8-7.9,3.5-11.5c-9.9-0.1-19.9,0.2-29.8-0.2c0-4.3,0-8.5,0-12.7c7.1,0,14,0,21.1,0
		c0-3.4,0-6.8,0-10.1c-7.1,0-14,0-21.1,0c0-3.2,0-6.5,0-9.7c8.9,0,17.9,0,26.8,0c0-3.6,0-7.1,0-10.7
		C379.9,711.8,358.1,711.8,336.4,711.8 M244.4,716.6c0,3.8,0,7.7,0,11.5c10,0,20.1,0,30.1,0c-3.4,5.5-7.2,10.8-11.2,15.9
		c-4-3.2-8.1-6.3-12.2-9.4c-2.4,2.9-4.6,6-6.9,8.9c10.3,8.5,20.9,16.4,30.4,25.8c2.5-3.5,5-6.9,7.5-10.4c-2.9-2.5-5.8-5-8.8-7.4
		c7.3-9.4,14.2-19.2,19.5-29.8c-3-1.9-6-3.9-9-5.8c-1.4,0.4-2.9,0.8-4.3,0.7C267.7,716.6,256,716.7,244.4,716.6 M479.7,724.8
		c6.9,10.6,13.2,21.8,17.1,33.9c4.6-2.1,9.2-4,13.7-6.1c-4.3-11.9-11.2-22.6-18.4-32.9C488,721.3,483.9,723.1,479.7,724.8
		 M427.7,720c-4,11.4-10.4,22-19.3,30.4c4.3,2.3,8.5,5,12.3,7.9c9-10.1,16.1-22,20.9-34.7C437.1,722.4,432.3,721.2,427.7,720z"/>
	<path fill="#FEFEFE" d="M141.7,229.7c3.6-2.2,6.5-5.7,10.4-7.1c11.7-0.2,23.3,0,35-0.1c-0.1,70.2-0.1,140.4,0,210.6
		c-11.9,0-23.7-0.1-35.6,0c0-58.1,0.1-116.3-0.1-174.4c-12.5,8.2-25.8,14.9-39,21.8c-0.1-11.2-0.1-22.5,0-33.7
		C123.2,243,132.4,236.2,141.7,229.7z"/>
	<path id="_x36_" fill="#FEFEFE" d="M231.9,225.2c4.3-1.9,8.9-2.7,13.5-2.6c38.1,0.1,76.3,0,114.4,0c-0.1,9.9-0.1,19.9,0,29.8
		c-30.6,0-61.1,0.1-91.6-0.7c-5.7-0.6-11.4,3.9-11.5,9.8c-0.1,16.3,0.1,32.6,0.1,48.9c27.6,0,55.1,0,82.8,0
		c13.7-0.1,26.5,11.5,27.2,25.2c0,22.6-0.1,45.1,0.1,67.7c0.5,13.1-9.1,25.4-21.4,29.2c-5.9,2.1-12.2,1.4-18.3,1.5
		c-28.2,0.1-56.4-0.1-84.5-0.6c-11.8-0.4-22.9-8.1-27.4-19c-2-4.5-2.7-9.4-2.6-14.3c0.1-48.8,0-97.5,0-146.3
		C212.5,241.7,220.6,229.9,231.9,225.2 M257.1,340.3c0.2,15.6,0.4,31.2,0.6,46.8c0,3.5,0.5,7.2,2.8,9.9c2.5,3.2,6.6,4.9,10.6,4.8
		c12.8,0.1,25.5,0.1,38.3,0.2c3.7,0,7.9,0.4,11.3-1.5c4.1-2.1,6.8-6.7,6.7-11.3c0-12,0-24,0-36.1c0.1-3.1-0.6-6.3-2.7-8.7
		c-2.3-2.8-6-4-9.4-3.9C295.9,340.6,276.5,340.5,257.1,340.3z"/>
	<path fill="#FEFEFE" d="M427.2,276.9c-0.2-2.3,1.9-4.5,4.2-4.3c5.1-0.1,10.4,0.1,15.5-0.1c1.8,0.1,4-0.3,5.1,1.4
		c1.2,1.1,1,2.9,1.1,4.3c-0.1,11.6,0,23.2-0.1,34.9c11.4,0.1,22.8,0,34.2,0.1c2.2-0.2,4.5,1.8,4.4,4c0.1,5.7,0.1,11.3,0,17
		c0.1,2.3-2.2,4.3-4.4,4c-11.4,0.1-22.9-0.1-34.2,0.1c0.1,12.1,0.1,24.3,0,36.4c0.1,2.2-1.8,4.4-4,4.3c-5.9,0.1-11.8,0.1-17.6,0
		c-2.3,0.2-4.4-2-4.2-4.3c-0.1-12.1,0-24.3,0-36.4c-11.3-0.1-22.6,0-34,0c-2.3,0.3-4.7-1.7-4.6-4c-0.1-5.7-0.1-11.3,0-17
		c-0.1-2.4,2.3-4.3,4.6-4c11.3,0,22.6,0.1,34,0C427.2,301.2,427.1,289,427.2,276.9z"/>
	<rect x="48.5" y="498.8" fill="#FFB540" width="498.3" height="148.5"/>
	<path fill="#FEFEFE" d="M130.1,543.6c8.4-5.9,19.1-8.4,29.2-6.9c4.6,0.7,9,2.4,13.5,3.7c0.7-1,1.4-2,2.1-3c1.1,0.1,2.3,0.1,3.4,0.2
		c0,7.6,0.4,15.3,0.5,22.9c0.4,2.1-2.1,2.5-3.6,2.9c-2.4-6.2-4.3-13.2-9.6-17.9c-5.5-5.7-15.1-6.1-21.5-1.8
		c-7.4,5.3-11.5,14.3-12.8,23.1c-1,8.1-0.5,16.6,2.7,24.3c2.8,6.6,8.7,12.1,15.9,13.4c6.6,1.2,14.1,0.5,19.3-4
		c4.1-3.7,5.4-9.3,6.5-14.4c1.4,0.1,2.7,0.4,4.1,0.5c-0.7,5.8-2.1,11.8-6,16.3c-5,5.8-12.9,8.1-20.4,8.3c-10,0.4-20.7-2.3-27.9-9.6
		c-8.1-7.9-10.9-19.8-9.8-30.8C116.9,560.4,121.3,549.8,130.1,543.6z"/>
	<path fill="#FEFEFE" d="M218.4,539.9c0.6-2.8,3.6-1.8,5.7-2c7.9,19.1,15.8,38.2,23.7,57.3c1.4,3.1,2.7,6.5,5.5,8.5
		c2.1,1.2,4.7,1.2,7.1,1.8c0.3,1,1.1,2.4,0,3.2c-0.8,1.2-2.4,0.7-3.6,1c-9.8-0.1-19.6,0.1-29.4-0.1c-2.3,0.3-2.3-2.4-2.8-3.9
		c2.9-0.7,6.2-0.4,8.5-2.7c1.7-1.8,1-4.6,0.3-6.7c-1.8-4.8-3.9-9.4-5.7-14.2c-6.7-0.1-13.4,0-20.1-0.1c-1.5,4-3.2,8.1-4.6,12.1
		c-0.8,2.6-1.8,5.9,0,8.4c1.5,2.4,4.8,2.6,7.3,3.2c-0.4,1.5-0.5,4.1-2.7,3.7c-6.8,0.1-13.7,0.1-20.5,0c-2.2,0.3-2.3-2.4-2.8-3.8
		c2.4-0.6,5.2-0.8,7.1-2.6c3.5-3.2,5.2-7.8,7.1-12.1C205.2,574.1,211.7,557,218.4,539.9 M209.7,576.9c5.3,0,10.6,0.1,15.9,0
		c-2.6-6.8-5.4-13.4-8.1-20.1C214.7,563.4,212.2,570.2,209.7,576.9z"/>
	<path fill="#FEFEFE" d="M265.9,538c9.6-0.2,19.2,0,28.8-0.1c7.3,0.1,14.8-0.1,21.8,2.3c9.6,3.2,17.3,11,20.9,20.3
		c4,10,4.1,21.7-0.1,31.6c-3,7.3-9.3,13.2-16.9,15.4c-6.4,1.8-13.2,2.1-19.8,2.1c-11.6-0.1-23.1,0.1-34.8-0.1c-0.2-1.3-1-2.7-0.4-4
		c2.5-0.6,5.4-0.2,7.4-2.1c2.9-2.4,2.7-6.4,2.9-9.8c0-13.2,0-26.5,0-39.7c-0.1-3.1-0.1-6.5-2.1-9.1c-2.1-2.4-5.7-2.4-8.6-3
		C265.4,540.6,265.6,539.3,265.9,538 M289.8,542.6c0.1,14.8,0,29.6,0,44.4c0,3.5-0.1,7,0.4,10.4c0.4,2.5,1.8,4.9,4,6.2
		c3,1.7,6.6,1.6,9.9,1.4c4.6-0.3,9.3-2.2,12.4-5.7c7.7-8,9.8-19.9,8-30.6c-1.5-9.3-6.6-18.4-15-23.1
		C303.6,542.3,296.5,542.5,289.8,542.6z"/>
	<path fill="#FEFEFE" d="M345.7,541.3c-1.9-1.2,0.5-3.7,2.1-3.3c9-0.1,18.1,0,27.2,0c4.3,0,8.7,0,13.1,0.7c7.9,1.2,14.8,8,15.8,16
		c0.7,4.9,0,10.1-3.1,14c-3.2,4.2-8.5,6.3-13.7,6.8c-5.8,0.4-11.7,0.3-17.5,0.3c0,6.2,0,12.3,0,18.5c0.1,3,0.2,6.5,2.4,8.7
		c2.2,2.1,5.4,2.1,8.2,2.6c-0.3,1.2-0.5,2.6-0.8,3.8c-9.8,0.2-19.7,0-29.6,0.1c-1.2-0.1-2.6,0.1-3.8-0.4c-1-0.9-1.1-2.3-1.6-3.5
		c3.5-0.6,7.9-0.7,9.8-4.1c1.7-3.6,1.2-7.8,1.4-11.7c-0.1-12,0-24,0-36.1c-0.2-3.2-0.1-6.8-2.2-9.3
		C351.4,542.4,348.1,542.9,345.7,541.3 M369.7,542.6c0,9.6,0,19,0,28.6c4.4-0.1,9.3,0.4,13.2-1.9c8.1-5.3,7.9-18.7,0.4-24.4
		C379.4,541.9,374.3,542.6,369.7,542.6z"/>
	<path fill="#FEFEFE" d="M443.2,537.9c1.6,0,3.2,0,4.9,0c7.8,18.9,15.7,37.8,23.4,56.7c1.3,2.9,2.5,6.1,4.9,8.4
		c2.4,2.2,5.9,2.1,8.9,2.8c-0.4,1.2-0.6,2.6-1.4,3.6c-2.3,0.4-4.6,0.2-6.9,0.3c-9.1-0.1-18.2,0.1-27.3-0.1c-0.3-1.2-0.5-2.6-0.8-3.8
		c2.8-0.6,6.1-0.5,8.2-2.6c1.8-1.8,1.1-4.7,0.4-6.8c-1.8-4.8-3.9-9.4-5.7-14.2c-6.7,0-13.4,0-20.1,0c-1.4,4.1-3.2,8.1-4.6,12.2
		c-0.8,2.6-1.7,5.7,0,8.2c1.5,2.6,4.9,2.6,7.5,3.4c-0.6,1.5-0.9,4-3.1,3.7c-6.8,0.1-13.7,0.1-20.5,0c-2.1,0.3-2.1-2.4-2.6-3.8
		c2.6-0.6,5.4-0.9,7.4-2.9c3.5-3.5,5.3-8.2,7.1-12.7C429.7,572.8,436.4,555.4,443.2,537.9 M441.4,556.8c-2.6,6.7-5.1,13.4-7.7,20.1
		c5.3,0,10.6,0.1,15.9,0C446.9,570.1,444.3,563.4,441.4,556.8z"/>
	<path fill="#FEFEFE" d="M354,677.9c9.8,0,19.7,0,29.5,0c0,1.8,0,3.6,0,5.4c-9.8,0-19.7,0-29.5,0C353.9,681.5,353.9,679.7,354,677.9
		z"/>
	<path fill="#FEFEFE" d="M354,692.1c9.8,0,19.7,0,29.5,0c0,1.8,0,3.6,0,5.4c-9.8,0-19.7,0-29.5,0C353.9,695.7,353.9,693.9,354,692.1
		z"/>
	<path fill="#FEFEFE" d="M133.8,723c10.2,0,20.4,0,30.6,0c0,4.4,0,8.8,0,13.2c-10.2,0-20.4,0-30.6,0
		C133.8,731.8,133.8,727.4,133.8,723z"/>
	<path fill="#FEFEFE" d="M210.8,752.7c2.8-3.5,5-7.5,6.7-11.7c1.9,3.2,3.8,6.4,5.4,9.7c2.1-2.1,4.3-4,6.5-6c0,2.5,0,5.1,0,7.6
		c-8.2,0.6-16.5,0.9-24.7,1.2c0-2.4,0-4.8,0-7.1C206.8,748.4,208.9,750.5,210.8,752.7z"/>
</g>
</svg>
