<?xml version="1.0" encoding="utf-8"?>
<!-- Generator: Adobe Illustrator 18.0.0, SVG Export Plug-In . SVG Version: 6.00 Build 0)  -->
<!DOCTYPE svg PUBLIC "-//W3C//DTD SVG 1.1//EN" "http://www.w3.org/Graphics/SVG/1.1/DTD/svg11.dtd">
<svg version="1.1" id="图层_1" xmlns="http://www.w3.org/2000/svg" xmlns:xlink="http://www.w3.org/1999/xlink" x="0px" y="0px"
	 viewBox="0 39.5 595.3 762.8" enable-background="new 0 39.5 595.3 762.8" xml:space="preserve">
<g id="_x23_050505ff">
	<path fill="#050505" d="M40.5,39.5h513.6c7.9,2,15.7,4.6,22.2,9.5c10.3,7.5,16.4,19.4,19,31.7v680.5c-1.5,5-2.6,10.2-5.1,14.8
		c-5.2,10.5-14.5,19-25.4,23.1c-3.5,1.4-7.1,2.1-10.7,3.2H41.2c-4.1-1.3-8.4-2.1-12.3-3.9C17.4,793.5,8,784,3.4,772.4
		c-1.5-3.7-2.3-7.5-3.5-11.2V80.8c1.5-5.2,2.6-10.6,5.4-15.4c4.7-9.3,12.6-16.8,22-21.3C31.5,42,36.1,41,40.5,39.5 M42.2,54.7
		c-15.4,2.4-27.8,17-27.5,32.6c0,221,0,441.9,0,662.9c0,3.9-0.1,7.9,0.8,11.8c2.4,11,10.9,20.4,21.5,24c7,2.6,14.5,1.6,21.8,1.8
		c162.9,0,325.8,0,488.7,0c14.2,0.2,27.7-9.8,31.7-23.5c2.1-6.4,1.2-13.2,1.4-19.8c0-219,0-438,0-657c0.1-11-5.8-21.7-15-27.6
		c-5.5-3.7-12.2-5.5-18.8-5.4c-166.1,0-332.2,0-498.3,0C46.4,54.2,44.2,54.3,42.2,54.7z"/>
	<path fill="#050505" d="M240,697.7c9.8-9.1,17.3-20.5,22.1-33c4,1.2,7.9,2.4,11.8,3.6c-0.4,1.1-0.8,2.1-1.2,3.2
		c6,10.9,14,20.7,23.8,28.4c-3.6,3.1-6.9,6.5-9.8,10.4c-8-7.7-14.5-17-19.9-26.6c-5.5,9.9-12.5,19-21,26.5c-1.3-1.5-2.6-3-4-4.4
		c-0.1,0.5-0.5,1.5-0.7,2.1c-16.6-0.1-33.1,0-49.8-0.1c0-3.4,0-6.8,0-10.1c1.8,0,3.6,0,5.4,0c0-8.5,0-17,0-25.6c3.6,0,7.2,0,10.8,0
		c0,8.5-0.1,17,0,25.6c1.9,0,3.9,0,5.8,0c0-10.5,0-20.9,0-31.5c3.8,0,7.6,0,11.5,0c0,4,0,7.9,0,11.9c5.2,0,10.4,0,15.6,0
		c0,3.5,0,6.8,0,10.3c-5.2,0-10.4,0-15.6,0c0,3.1,0,6.2,0,9.3C230,697.7,235,697.7,240,697.7z"/>
	<path fill="#050505" d="M117.8,672.7c17.9-1.2,35.9-3,53.6-7c2.4,3.5,4.4,7.2,6.5,10.9c-7.3,1.8-14.7,2.9-22.1,3.9
		c0,3.5,0,7.1,0,10.5c9.5,0,19,0,28.4,0c0,3.8,0,7.7,0,11.5c-9.5,0-19,0-28.4,0c0,3.4,0,6.8,0,10.1c7.2,0,14.4,0,21.6,0
		c0,11.4,0,22.7,0,34.1c-18.7,0-37.4,0-56.1,0c0-11.4,0-22.7,0-34.1c7.1,0,14.1,0,21.2,0c0-3.4,0-6.8,0-10.1c-9.7,0-19.3,0-29,0
		c0-3.8,0-7.7,0-11.5c9.7,0,19.3,0,29,0c0-3.1,0-6.1,0-9.2c-7.1,0.4-14.2,1.2-21.3,1.2C120.4,679.3,119.3,675.9,117.8,672.7
		 M133.8,723c0,4.4,0,8.8,0,13.2c10.2,0,20.4,0,30.6,0c0-4.4,0-8.8,0-13.2C154.1,723,144,723,133.8,723z"/>
	<path fill="#050505" d="M312.6,665.4c4,0,8,0,12.1,0c-0.1,6.9,0,13.8,0,20.7c3.7,0,7.3,0,11,0c0,4,0,8.2,0,12.2c-3.7,0-7.3,0-11,0
		c-0.1,5.4,0,10.9,0,16.3c3.3-0.9,6.6-1.8,9.9-2.6c0.7,4,1.2,7.9,1.8,11.9c-3.9,1.2-7.8,2.4-11.7,3.5c0,8.6,0,17.2,0,25.7
		c0,3.8-0.2,8.5-3.7,10.8c-4.6,3.2-10.5,2.9-15.9,2.9c-0.7-4.1-1.8-8.2-3.5-12.1c3.6,0,7.2,0.2,10.8-0.2c0.4-7.9,0.1-15.7,0.1-23.6
		c-3.4,0.9-6.7,1.9-10.1,2.8c-1-4.3-2.1-8.5-2.9-12.9c4.4-0.8,8.7-2.1,13.1-3.2c0-6.5,0-13,0-19.5c-4,0-8,0-12,0c0-4,0-8.2,0-12.2
		c4,0,8,0,12,0C312.6,679.2,312.6,672.3,312.6,665.4z"/>
	<path fill="#050505" d="M83.5,676c3.2-2.5,6.5-5,9.7-7.5c6.2,5.3,12.1,10.9,16.9,17.4c-3.5,2.7-6.8,5.6-10.3,8.3
		C95.2,687.4,89.4,681.6,83.5,676z"/>
	<path fill="#050505" d="M341.7,668.8c18.2,0,36.2,0,54.4,0c0,12.7,0,25.4,0,38.1c-18.2,0-36.2,0-54.4,0
		C341.7,694.3,341.7,681.5,341.7,668.8 M354,677.9c0,1.8,0,3.6,0,5.4c9.8,0,19.7,0,29.5,0c0-1.8,0-3.6,0-5.4
		C373.6,677.9,363.8,677.9,354,677.9 M354,692.1c0,1.8,0,3.6,0,5.4c9.8,0,19.7,0,29.5,0c0-1.8,0-3.6,0-5.4
		C373.6,692.1,363.8,692.1,354,692.1z"/>
	<path fill="#050505" d="M422.1,672.3c25.9,0,51.9,0,77.8,0c0,4.4,0,8.8,0,13.2c-25.9,0-51.9,0-77.8,0
		C422.1,681.1,422.1,676.7,422.1,672.3z"/>
	<path fill="#050505" d="M255.9,702.2c3.3-1.7,6.7-3.2,10.1-4.8c3.5,4.1,6.7,8.4,9.5,13c-3.5,1.8-6.8,3.7-10.2,5.4
		c-0.8-0.5-1.1-1.5-1.5-2.2C261.3,709.6,258.7,705.9,255.9,702.2z"/>
	<path fill="#050505" d="M412,698.7c32.7,0,65.5,0,98.2,0c0,4.5,0,8.9,0,13.4c-13.8,0-27.7,0-41.5,0c0,12.9,0,25.9,0,38.9
		c-0.1,3.9,0.1,8.2-2.1,11.6c-2.2,3.1-6.1,4.2-9.6,4.9c-5.7,1-11.4,0.8-17.1,0.9c-1-4.9-2.6-9.6-4.6-14c5.8,0.2,11.6,0.4,17.4,0.1
		c1.5,0,1.6-1.7,1.5-2.8c0-13.2,0-26.4,0-39.6c-14,0-28.1,0-42.2,0C412,707.6,412,703.2,412,698.7z"/>
	<path fill="#050505" d="M82,704.6c8.6,0,17.2,0,25.8,0c0.1,13.4-0.2,26.8,0.1,40.2c6,3.3,11.9,7.1,18.7,8.2
		c13.5,2.4,27.3,1.5,40.9,0.7c6-0.4,11.9-1,17.9-1.6c-1.5,4.2-2.9,8.5-3.5,12.9c-11.9,0.7-23.8,1.1-35.8,1.2
		c-10.4-0.1-21.2-0.5-30.6-5.1c-3.5-1.5-6.5-3.8-10-5.3c-2.1-1-4.5,0.1-6.2,1.4c-3.9,3.1-7,7-10.1,10.9c-2.8-3.7-5.4-7.6-8.2-11.3
		c4.2-4.1,8.9-7.6,14.1-10.4c0-9.8,0-19.5,0-29.3c-4.4-0.1-8.8,0-13.3,0C82,712.8,82,708.7,82,704.6z"/>
	<path fill="#050505" d="M213.4,709.2c3.3,0.4,6.5,0.6,9.8,0.9c-0.4,6.5-1.4,13-2.4,19.5c2.9,4.1,6,8.3,8.5,12.7c0-10.4,0-20.7,0-31
		c3.5,0,6.8,0,10.3,0c0,18.8,0,37.6,0,56.4c-3.5,0-6.8,0-10.3,0c0-1.8,0-3.6,0-5.4c-11.8,0.8-23.5,1.7-35.3,2.3
		c0-17.6,0-35.1,0-52.7c3.5,0,7.1,0,10.6,0c0.1,10.7-0.1,21.4,0.1,32.1C211.7,733.8,212.4,721.1,213.4,709.2 M210.8,752.7
		c-1.9-2.2-4-4.3-6.2-6.2c0,2.4,0,4.7,0,7.1c8.2-0.4,16.5-0.7,24.7-1.2c0-2.5,0-5.1,0-7.6c-2.2,2-4.3,3.9-6.5,6
		c-1.6-3.3-3.5-6.5-5.4-9.7C215.7,745.2,213.6,749.2,210.8,752.7z"/>
	<path fill="#050505" d="M336.4,711.8c21.7,0,43.4,0,65.1,0c0,3.6,0,7.1,0,10.7c-8.9,0-17.9,0-26.8,0c0,3.2,0,6.5,0,9.7
		c7.1,0,14,0,21.1,0c-0.1,3.4-0.1,6.8,0,10.1c-7.1,0-14,0-21.1,0c0,4.3,0,8.5,0,12.7c9.9,0.4,19.8,0.1,29.8,0.2
		c-1.8,3.7-2.9,7.6-3.5,11.5c-7.5-0.1-15.1,0-22.6-0.1c-7.5-0.2-15.4-1.5-21.5-6.2c-3.5-2.4-6-6-8.2-9.5
		c-2.8,6.4-6.5,12.3-11.5,17.1c-3-2.9-6.2-5.6-9.7-7.9c10.3-8.4,13.9-22,15.4-34.6c4,0.5,8,1,12,1.5c-0.5,3.7-1.2,7.4-2,11.1
		c1.5,5.1,4.9,9.8,9.3,12.9c0.1-9.6,0-19.1,0-28.7c-8.6,0-17.3,0-25.9,0C336.4,719,336.4,715.4,336.4,711.8z"/>
	<path fill="#050505" d="M244.4,716.6c9.9,0.1,19.8,0,29.7,0c3.2-0.1,6.5,0.4,9.6-0.7c3,2,6,3.9,9,5.8
		c-5.3,10.7-12.1,20.5-19.4,29.8c3,2.4,5.9,4.9,8.8,7.4c-2.5,3.5-5,6.9-7.4,10.4c-9.5-9.3-20.1-17.3-30.4-25.8
		c2.4-2.9,4.6-6,6.9-8.9c4.1,3.1,8.2,6.2,12.2,9.4c4-5.1,7.8-10.4,11.2-15.9c-10,0-20.1,0-30.1,0
		C244.4,724.3,244.4,720.4,244.4,716.6z"/>
	<path fill="#050505" d="M479.7,724.8c4.2-1.7,8.3-3.5,12.5-5.2c7.2,10.3,14.1,21.1,18.4,32.9c-4.6,2.1-9.2,4-13.7,6.1
		C493,746.5,486.5,735.4,479.7,724.8z"/>
	<path fill="#050505" d="M427.7,720c4.6,1.2,9.3,2.4,14,3.7c-4.9,12.6-11.9,24.5-20.9,34.7c-3.9-2.9-8-5.7-12.3-7.9
		C417.3,742,423.7,731.4,427.7,720z"/>
</g>
<g id="_x23_bd0000ff">
	<path fill="#BD0000" d="M77,104.1c3.9-1.1,7.9-1.7,11.9-1.9c138.2,0,276.3,0,414.5,0c10.7-0.2,21.8,2.9,29.8,10.4
		c2.6,2.7,5.7,5.2,7.5,8.6c5.3,7.9,6.8,17.7,6.5,27.1c0,147,0,294,0,440.9c0.1,19.5-0.1,39.1,0.1,58.6c-132.5-0.1-264.9,0-397.4-0.1
		c-34,0.1-68-0.1-102,0.1c0.1-75.6,0-151.3,0.1-226.9c0-91.1,0-182.3,0-273.4c-0.2-9.1,1.4-18.7,6.5-26.4
		C59.8,113.2,67.8,106.8,77,104.1 M242.2,226c-11.9,4-21.5,13.9-25.6,25.7c-4.4,11.2-4.3,23.5-3.7,35.3c0.8,8,2.8,16,7,22.9
		c4.3,7,10.2,12.7,16.5,17.7c-6.2,5.1-12.3,10.7-16.4,17.7c-6.4,11-8.5,24-7.6,36.6c0.9,14.2,7,28.1,16.9,38.2
		c7.9,7.9,19.1,11.4,30.1,12.1c4.9,0.1,9.8,1,14.8,0.9c14.7,0.2,29.5,0.8,44.1-0.9c7-0.7,14-1.9,20.6-4.7
		c5.7-2.6,10.7-6.9,14.3-12.1c8.2-11.3,12.6-25.3,12.5-39.2c0-11.5-2.3-23.2-8.5-33c-3.9-6.2-9.6-10.7-15.2-15.1
		c0.2-1.2,1.6-1.5,2.5-2.3c9.8-6.2,16.8-16.3,19.6-27.4c4-15.7,2.8-32.6-3.4-47.5c-3.5-8.3-8.7-16.2-16.3-21.2
		c-6.1-4.3-13.6-5.9-20.9-6.6c-11.5-0.7-23.1-0.4-34.5-0.5C273.2,222.7,257.4,221.6,242.2,226 M150.6,223.9
		c-11.9,8.7-23.7,18.1-37.6,23.5c0,10.7,0,21.5,0,32.2c9.8-4.9,19.5-10.3,29-15.7c3.4-1.8,6.2-4.4,9.8-5.7
		c0.1,58.2,0.1,116.3,0.1,174.5c11.5,0,23.1,0,34.7,0c0-69.9,0-139.8,0-209.7c-11,0-22.1,0-33.1,0
		C152.5,223,151.5,223.3,150.6,223.9 M427.6,277.6c0,12,0,24,0,36c-11.5,0.1-23,0-34.5,0c-2-0.1-3.1,1.8-4.3,3.2
		c-0.2,6-0.2,12.1,0,18c1.2,1.2,2.3,3.3,4.3,3.2c11.5,0,23-0.1,34.5,0c0.1,12.3,0,24.5,0,36.7c-0.1,1.7,1.6,3.2,3.1,3.7
		c6.1,0.1,12.2,0.1,18.3,0.1c1.6,0.1,2.6-1.4,3.5-2.5c0.3-12.6,0-25.4,0.1-38c11.5-0.1,23,0,34.5,0c1.7,0.2,2.6-1.4,3.7-2.4
		c0.4-3.3,0.1-6.8,0.2-10.1c-0.1-3.1,0.3-6.2-0.2-9.3c-1-1-2-2.6-3.7-2.4c-11.5,0-23,0-34.5,0c-0.1-12.3,0-24.5,0-36.7
		c0.1-1.7-1.5-3.2-3-3.7c-5.9-0.1-11.8,0-17.6-0.1C429.7,272.8,427.3,275.2,427.6,277.6 M136.8,544.6c-8.3,6.7-12.3,17.4-12.9,27.9
		c-0.6,10.5,2.3,21.8,10,29.2c7,7.1,17.4,9.8,27.1,9.6c7.5,0,15.5-2.2,20.8-7.9c4.2-4.5,5.7-10.7,6.3-16.8c-1.4-0.2-2.8-0.4-4.1-0.7
		c-1,5.2-2.4,10.9-6.5,14.6c-5.3,4.4-12.8,5.1-19.4,4c-5.5-1.1-10.4-4.6-13.5-9.3c-4.6-6.9-5.7-15.6-5.4-23.7
		c0.3-10,4-20.4,11.9-26.8c4.3-3.7,10.4-4.5,15.8-3.2c4.2,1.2,7.6,4.2,10.1,7.6c3.2,4.3,4.3,9.6,6.5,14.3c0.9-0.1,1.8-0.3,2.7-0.6
		c1.5-1.6,0.7-4,0.7-6c-0.1-6.5-0.4-12.9-0.4-19.4c-1.2,0-2.4,0-3.6,0c-0.6,1-1.2,1.9-1.8,2.9c-5.6-1.5-11-4-17-4.1
		C154.3,535.7,144.4,538.5,136.8,544.6 M223.2,538.2c-7.1,17.9-13.9,36-21,53.9c-1.8,4.1-3.6,8.5-7.1,11.4c-1.8,1.5-4.3,1.8-6.6,2.1
		c0.1,1.4,0.4,2.7,1.1,4c7.9,0,15.7,0,23.6,0c0.7-1.2,1-2.6,1.1-4c-2.5-0.5-5.7-0.7-7.1-3.1c-1.8-2.5-0.9-5.7,0-8.3
		c1.5-4.1,3.2-8.1,4.6-12.1c6.7,0.1,13.4,0,20.1,0c1.8,4.6,3.7,9.1,5.5,13.7c0.7,2.1,1.7,4.8,0.2,6.8c-2,2.7-5.7,2.4-8.7,3
		c0.1,1.4,0.4,2.7,1.1,4c11,0,22,0.1,33,0c2.1-0.1,2.1-2.5,1.8-4c-2.1-0.4-4.3-0.5-6.3-1.3c-2.4-1-3.7-3.4-4.9-5.5
		c-2.1-4.2-3.7-8.6-5.6-12.9c-6.6-15.9-13.2-31.9-19.8-47.8C226.6,538,224.7,537.6,223.2,538.2 M266.3,538.1c-1.2,0.9-1,2.5-1.2,3.8
		c3.2,0.4,7.3,0.6,9.1,3.7c1.8,3.4,1.4,7.4,1.5,11.2c0,12.5,0,25,0,37.5c-0.2,2.9-0.1,6.5-2.5,8.7c-2.1,2.3-5.5,2.1-8.4,2.6
		c0.3,1.3,0.7,2.6,1.1,4c8.1,0.2,16.2,0.1,24.3,0.1c8.6-0.1,17.3,0.4,25.8-1.1c5.5-0.9,10.9-3.3,14.9-7.3c7.1-6.8,9.8-17.1,9.3-26.8
		c-0.3-10.4-4.6-20.9-12.6-27.9c-6.2-5.6-14.6-8.3-22.9-8.6c-10.7-0.4-21.5-0.1-32.3-0.1C270.5,537.9,268.5,537.8,266.3,538.1
		 M346.2,540.5c1.5,2.6,5.1,1.5,7.3,3.2c3.5,2.2,3.2,6.8,3.4,10.4c0,13.2,0,26.4,0,39.5c-0.2,3.2,0.1,6.8-2.3,9.3
		c-2.1,2.4-5.6,2.4-8.6,2.8c0.1,1.5,0.4,3.9,2.4,4c10.2,0.1,20.5,0.1,30.7,0c2.3,0.2,2.3-2.5,2.4-4c-2.8-0.3-6-0.4-8.2-2.5
		c-2.1-2.1-2.3-5.2-2.4-8c0-6.4,0-12.9,0-19.3c5.7,0,11.3,0.1,17-0.2c5.1-0.4,10.4-2.4,13.8-6.5c3.5-4,4.1-9.8,3.4-14.9
		c-1.2-8.1-8.3-14.7-16.4-15.7c-4.9-0.7-9.8-0.6-14.7-0.6c-8.3,0-16.7,0-25,0C347.7,537.7,346.1,539,346.2,540.5 M438.7,537.9
		c-7.1,18.1-14,36.3-21.2,54.4c-1.8,4-3.5,8.5-7.1,11.3c-1.8,1.5-4.2,1.7-6.4,2.1c0.1,1,0,2.1,0.4,3c0.6,1.3,2.1,0.9,3.3,1
		c6.6-0.1,13.2,0.1,19.8-0.1c2-0.1,2.1-2.4,2.2-3.9c-2.6-0.5-5.7-0.7-7.3-3.2c-1.8-2.4-0.8-5.6,0-8.2c1.5-4,3.2-8,4.6-12.1
		c6.7,0,13.4,0,20.1,0c1.8,4.7,3.8,9.3,5.7,14c0.8,2.2,1.5,5.1-0.3,6.9c-2.1,2.1-5.4,2-8.2,2.5c0.1,1.5,0.1,4.3,2.4,4
		c9.8,0.1,19.6,0,29.4,0.1c1-0.1,2.2,0.1,3.2-0.3c1.2-0.8,1-2.4,1.2-3.7c-2.9-0.6-6.3-0.5-8.7-2.6c-2.4-2.4-3.6-5.8-5.1-8.9
		c-7.8-18.7-15.5-37.4-23.2-56.1C442.1,537.9,440.4,537.9,438.7,537.9z"/>
	<path fill="#BD0000" d="M277.4,257.5c6.2-0.4,12.5-0.3,18.7-0.2c5.9,0.1,12,0.3,17.7,1.9c6.2,1.8,11,7.2,12.6,13.4
		c1.8,7,2.1,14.5,0.2,21.5c-1.1,4-3.7,7.6-7.2,9.8c-2.8,1.9-6.2,2.5-9.4,3.3c-6.7,1.6-13.6,1.8-20.4,2.3c-8.2-0.3-16.4-1.3-24.1-4
		c-6.5-2.7-12.9-7.8-14-15.2c-1.1-7.3-1.1-15.4,3.1-21.9c3-4.2,7.4-7.5,12.4-8.9C270.3,258.3,273.8,257.9,277.4,257.5z"/>
	<path fill="#BD0000" d="M274.4,346.4c6.8-0.6,13.5-1.3,20.3-0.3c6.8,0.9,13.4,2.3,20,4c4.9,1.1,8.1,5.5,10,9.8
		c2.6,5.7,2.4,12.2,1.9,18.3c-0.7,5.1-2.2,10.4-6,14.1c-3.5,3.7-8.7,4.8-13.7,5c-9.9,0.4-19.9,0.6-29.8,0.1c-4.9-0.7-10,0-14.7-1.6
		c-5.4-2-8.9-7.2-10.2-12.6c-2.1-8.3-2.1-17.5,1.6-25.4c1.7-3.7,4.3-7.2,8.2-8.7C265.9,347.5,270.2,346.9,274.4,346.4z"/>
	<path fill="#BD0000" d="M289.8,542.6c7-0.1,14.6-0.3,20.7,3.5c9.8,6,14.7,17.9,14.7,29c0.2,9.2-2.8,18.9-9.7,25.2
		c-3.7,3.6-9.1,4.9-14.2,4.7c-3.2,0.1-6.9-0.6-9.1-3.2c-2.1-2.5-2.3-6-2.4-9.1C289.8,576.2,289.8,559.4,289.8,542.6z"/>
	<path fill="#BD0000" d="M371,542.6c4,0.1,8.5-0.7,12.3,1.4c5.7,3,7.9,10.4,6.7,16.4c-0.8,4.8-4.5,9.4-9.5,10.2
		c-3.2,0.5-6.3,0.4-9.5,0.4C371,561.7,371,552.1,371,542.6z"/>
	<path fill="#BD0000" d="M213.8,576.9c2.6-6.7,5-13.4,7.8-20.1c2.6,6.7,5.4,13.4,8.1,20.1C224.4,576.9,219.1,576.9,213.8,576.9z"/>
	<path fill="#BD0000" d="M436.9,556.8c2.9,6.7,5.5,13.4,8.2,20.1c-5.3,0.1-10.5,0-15.8,0C431.8,570.1,434.4,563.5,436.9,556.8z"/>
</g>
<g id="_x23_ffffffff">
	<path fill="#FFFFFF" d="M42.2,54.7c2.1-0.4,4.2-0.4,6.3-0.4c166.1,0,332.2,0,498.3,0c6.6-0.1,13.3,1.7,18.8,5.4
		c9.2,6,15.1,16.7,15,27.6c0,219,0,438,0,657c-0.1,6.6,0.7,13.4-1.4,19.8c-4,13.6-17.4,23.7-31.7,23.5c-162.9,0-325.9,0-488.7,0
		c-7.3-0.1-14.8,0.7-21.8-1.8c-10.7-3.6-19.1-13-21.5-24c-1-3.8-0.9-7.8-0.8-11.8c0-221,0-441.9,0-662.9
		C14.4,71.6,26.8,57.1,42.2,54.7 M77,104.1c-9.3,2.7-17.2,9-22.5,17c-5.1,7.7-6.8,17.3-6.5,26.4c0,91.1,0,182.3,0,273.4
		c-0.1,75.6,0.1,151.3-0.1,226.9c34-0.1,68,0,102-0.1c132.5,0.1,264.9-0.1,397.4,0.1c-0.1-19.5,0-39.1-0.1-58.6c0-147,0-294,0-440.9
		c0.3-9.4-1.2-19.2-6.5-27.1c-1.8-3.5-4.9-5.9-7.5-8.6c-8-7.3-19.1-10.6-29.8-10.4c-138.2,0-276.3,0-414.5,0
		C84.9,102.4,80.9,103,77,104.1 M240,697.7c-5,0-10,0-15,0c0-3.1,0-6.2,0-9.3c5.2,0,10.4,0,15.6,0c0-3.5,0-6.8,0-10.3
		c-5.2,0-10.4,0-15.6,0c0-4,0-7.9,0-11.9c-3.8,0-7.6,0-11.5,0c0,10.5,0,20.9,0,31.5c-1.9,0-3.9,0-5.8,0c-0.1-8.5,0-17,0-25.6
		c-3.6,0-7.2,0-10.8,0c0,8.5,0,17.1,0,25.6c-1.8,0-3.6,0-5.4,0c0,3.4,0,6.8,0,10.1c16.6,0,33.1-0.1,49.8,0.1
		c0.1-0.5,0.5-1.5,0.7-2.1c1.4,1.4,2.6,2.9,4,4.4c8.5-7.5,15.5-16.5,21-26.5c5.5,9.6,11.9,18.9,19.9,26.6c2.9-3.8,6.2-7.3,9.8-10.4
		c-9.8-7.7-17.9-17.5-23.8-28.4c0.4-1.1,0.8-2.1,1.2-3.2c-4-1.2-7.9-2.4-11.8-3.6C257.3,677.2,249.8,688.6,240,697.7 M117.8,672.7
		c1.5,3.3,2.6,6.8,3.3,10.3c7.1,0,14.2-0.7,21.3-1.2c0,3.1,0,6.1,0,9.2c-9.7,0-19.3,0-29,0c0,3.8,0,7.7,0,11.5c9.7,0,19.3,0,29,0
		c0,3.4,0,6.8,0,10.1c-7.1,0-14.1,0-21.2,0c0,11.4,0,22.7,0,34.1c18.7,0,37.4,0,56.1,0c0-11.4,0-22.7,0-34.1c-7.2,0-14.4,0-21.6,0
		c0-3.4,0-6.8,0-10.1c9.5,0,19,0,28.4,0c0-3.8,0-7.7,0-11.5c-9.5,0-19,0-28.4,0c0-3.5,0-7.1,0-10.5c7.4-1,14.8-2.1,22.1-3.9
		c-2.1-3.6-4.1-7.4-6.5-10.9C153.7,669.6,135.7,671.4,117.8,672.7 M312.6,665.4c0.1,6.9,0,13.8,0,20.7c-4,0-8,0-12,0
		c0,4,0,8.2,0,12.2c4,0,8,0,12,0c0.1,6.5,0,13,0,19.5c-4.3,1-8.7,2.3-13.1,3.2c1,4.3,2,8.6,2.9,12.9c3.4-0.9,6.7-1.9,10.1-2.8
		c-0.1,7.9,0.2,15.7-0.1,23.6c-3.6,0.4-7.2,0.2-10.8,0.2c1.7,3.8,2.8,7.9,3.5,12.1c5.4-0.1,11.2,0.4,15.9-2.9
		c3.5-2.4,3.7-7,3.7-10.8c0-8.6,0-17.2,0-25.7c3.9-1.1,7.8-2.4,11.7-3.5c-0.6-4-1.2-7.9-1.8-11.9c-3.3,0.9-6.6,1.8-9.9,2.6
		c0-5.4-0.1-10.9,0-16.3c3.7,0,7.3,0,11,0c0-4,0-8.2,0-12.2c-3.7,0-7.3,0-11,0c0-6.9,0-13.8,0-20.7
		C320.6,665.4,316.6,665.4,312.6,665.4 M83.5,676c5.9,5.7,11.8,11.5,16.3,18.3c3.5-2.7,6.8-5.6,10.3-8.3
		c-4.8-6.6-10.7-12.2-16.9-17.4C90,671,86.7,673.5,83.5,676 M341.7,668.8c0,12.7,0,25.4,0,38.1c18.2,0,36.2,0,54.4,0
		c0-12.7,0-25.4,0-38.1C378,668.8,359.9,668.8,341.7,668.8 M422.1,672.3c0,4.4,0,8.8,0,13.2c25.9,0,51.9,0,77.8,0
		c0-4.4,0-8.8,0-13.2C473.9,672.3,448,672.3,422.1,672.3 M255.9,702.2c2.8,3.7,5.4,7.4,7.7,11.5c0.5,0.7,0.7,1.7,1.5,2.2
		c3.5-1.8,6.8-3.7,10.2-5.4c-2.8-4.6-6-8.9-9.5-13C262.6,699,259.2,700.6,255.9,702.2 M412,698.7c0,4.5,0,8.9,0,13.4
		c14,0,28.1,0,42.2,0c0,13.2,0,26.4,0,39.6c0.1,1.1-0.1,2.8-1.5,2.8c-5.8,0.2-11.6,0.1-17.4-0.1c2.1,4.5,3.7,9.2,4.6,14
		c5.7-0.1,11.5,0.1,17.1-0.9c3.5-0.7,7.5-1.8,9.6-4.9c2.2-3.5,1.9-7.7,2.1-11.6c0-12.9,0-25.9,0-38.9c13.8,0,27.7,0,41.5,0
		c0-4.5,0-8.9,0-13.4C477.5,698.7,444.7,698.7,412,698.7 M82,704.6c0,4,0,8.2,0,12.3c4.4,0,8.8,0,13.3,0c0,9.8,0,19.5,0,29.3
		c-5.2,2.7-9.9,6.2-14.1,10.4c2.8,3.7,5.5,7.6,8.2,11.3c3.1-3.9,6.2-7.8,10.1-10.9c1.7-1.3,4-2.4,6.2-1.4c3.5,1.5,6.5,3.7,10,5.3
		c9.5,4.6,20.3,5.1,30.6,5.1c11.9-0.1,23.9-0.4,35.8-1.2c0.5-4.4,1.9-8.7,3.5-12.9c-6,0.7-11.9,1.2-17.9,1.6
		c-13.6,0.7-27.4,1.7-40.9-0.7c-6.8-1.1-12.8-4.9-18.7-8.2c-0.4-13.4-0.1-26.8-0.1-40.2C99.2,704.6,90.6,704.6,82,704.6
		 M213.4,709.2c-1.1,11.8-1.8,24.6-8.7,34.8c-0.1-10.7,0-21.4-0.1-32.1c-3.5,0-7.1,0-10.6,0c0,17.6,0,35.1,0,52.7
		c11.8-0.6,23.5-1.5,35.3-2.3c0,1.8,0,3.6,0,5.4c3.5,0,6.8,0,10.3,0c0-18.8,0-37.6,0-56.4c-3.5,0-6.8,0-10.3,0c0,10.4,0,20.7,0,31
		c-2.5-4.4-5.5-8.6-8.5-12.7c1-6.5,2.1-12.9,2.4-19.5C220,709.8,216.7,709.5,213.4,709.2 M336.4,711.8c0,3.6,0,7.1,0,10.7
		c8.6,0,17.3,0,25.9,0c0,9.6,0.1,19.1,0,28.7c-4.4-3.1-7.7-7.8-9.3-12.9c0.7-3.7,1.5-7.3,2-11.1c-4-0.5-8-1-12-1.5
		c-1.5,12.6-5.1,26.2-15.4,34.6c3.5,2.4,6.7,5.1,9.7,7.9c5-4.9,8.7-10.8,11.5-17.1c2.2,3.5,4.7,7.1,8.2,9.5c6.1,4.6,14,6,21.5,6.2
		c7.5,0.1,15,0,22.6,0.1c0.7-4,1.8-7.9,3.5-11.5c-9.9-0.1-19.8,0.2-29.8-0.2c0-4.3,0-8.5,0-12.7c7.1,0,14,0,21.1,0
		c-0.1-3.4-0.1-6.8,0-10.1c-7.1,0-14,0-21.1,0c0-3.2,0-6.5,0-9.7c8.9,0,17.9,0,26.8,0c0-3.6,0-7.1,0-10.7
		C379.9,711.8,358.1,711.8,336.4,711.8 M244.4,716.6c0,3.8,0,7.7,0,11.5c10,0,20.1,0,30.1,0c-3.4,5.5-7.2,10.8-11.2,15.9
		c-4-3.2-8.1-6.3-12.2-9.4c-2.4,2.9-4.6,6-6.9,8.9c10.3,8.5,20.9,16.5,30.4,25.8c2.4-3.5,4.9-6.9,7.4-10.4c-2.9-2.5-5.8-5-8.8-7.4
		c7.3-9.4,14.2-19.2,19.4-29.8c-3-1.9-6-3.8-9-5.8c-3.1,1-6.3,0.7-9.6,0.7C264.2,716.6,254.4,716.7,244.4,716.6 M479.7,724.8
		c6.8,10.7,13.2,21.8,17.1,33.9c4.6-2.1,9.2-4,13.7-6.1c-4.3-11.9-11.2-22.6-18.4-32.9C488,721.2,483.9,723.1,479.7,724.8
		 M427.7,720c-4,11.4-10.4,22-19.3,30.4c4.3,2.3,8.5,5,12.3,7.9c9-10.1,16.1-22,20.9-34.7C437.1,722.4,432.3,721.2,427.7,720z"/>
	<path fill="#FFFFFF" d="M242.2,226c15.1-4.3,31.1-3.3,46.7-3.5c11.5,0.1,23.1-0.2,34.5,0.5c7.3,0.8,14.8,2.4,20.9,6.6
		c7.6,5,12.9,12.9,16.3,21.2c6.2,14.9,7.4,31.9,3.4,47.5c-2.9,11.2-9.8,21.2-19.6,27.4c-0.8,0.7-2.2,1-2.5,2.3
		c5.7,4.4,11.4,9,15.2,15.1c6.2,9.8,8.5,21.5,8.5,33c0,14-4.3,27.9-12.5,39.2c-3.5,5.2-8.5,9.6-14.3,12.1c-6.5,2.8-13.6,4-20.6,4.7
		c-14.6,1.8-29.4,1.1-44.1,0.9c-4.9,0.1-9.8-0.8-14.8-0.9c-11-0.7-22.1-4.2-30.1-12.1c-10-10.1-16.1-24-16.9-38.2
		c-1-12.6,1.2-25.6,7.6-36.6c4-7.1,10.1-12.6,16.4-17.7c-6.3-5-12.3-10.7-16.5-17.7c-4.2-6.9-6.1-15-7-22.9
		c-0.6-11.8-0.7-24.1,3.7-35.3C220.7,239.9,230.3,230,242.2,226 M277.4,257.5c-3.5,0.4-7.1,0.8-10.5,1.8c-5,1.4-9.4,4.7-12.4,8.9
		c-4.2,6.4-4.2,14.6-3.1,21.9c1.1,7.4,7.6,12.4,14,15.2c7.7,2.8,15.9,3.7,24.1,4c6.8-0.4,13.7-0.6,20.4-2.3c3.2-0.8,6.6-1.4,9.4-3.3
		c3.5-2.3,6.1-5.9,7.2-9.8c1.9-7,1.7-14.5-0.2-21.5c-1.6-6.2-6.3-11.6-12.6-13.4c-5.7-1.6-11.8-1.8-17.7-1.9
		C289.9,257.2,283.7,257.1,277.4,257.5 M274.4,346.4c-4.2,0.5-8.5,1.1-12.4,2.7c-3.9,1.5-6.5,5.1-8.2,8.7
		c-3.7,7.9-3.7,17.1-1.6,25.4c1.3,5.4,4.8,10.7,10.2,12.6c4.7,1.6,9.8,1,14.7,1.6c9.9,0.6,19.9,0.4,29.8-0.1
		c4.9-0.2,10.1-1.3,13.7-5c3.7-3.7,5.3-9,6-14.1c0.4-6.1,0.7-12.6-1.9-18.3c-1.9-4.3-5.1-8.7-10-9.8c-6.5-1.7-13.2-3.2-20-4
		C287.9,345.2,281.2,345.8,274.4,346.4z"/>
	<path fill="#FFFFFF" d="M150.6,223.9c0.9-0.6,1.9-1,2.9-0.8c11,0,22.1,0,33.1,0c0,69.9,0,139.8,0,209.7c-11.5,0-23.1,0-34.7,0
		c0-58.1,0.1-116.3-0.1-174.5c-3.6,1.2-6.5,3.9-9.8,5.7c-9.6,5.4-19.2,10.8-29,15.7c-0.1-10.7-0.1-21.5,0-32.2
		C126.8,242,138.8,232.7,150.6,223.9z"/>
	<path fill="#FFFFFF" d="M427.6,277.6c-0.4-2.4,2.1-4.9,4.5-4.6c5.9,0.1,11.8-0.1,17.6,0.1c1.5,0.5,3.2,2,3,3.7
		c0,12.3,0,24.5,0,36.7c11.5,0.1,23,0,34.5,0c1.7-0.2,2.6,1.4,3.7,2.4c0.4,3.1,0.1,6.2,0.2,9.3c-0.1,3.4,0.3,6.8-0.2,10.1
		c-1,1-2,2.6-3.7,2.4c-11.5,0-23,0-34.5,0c-0.1,12.6,0.1,25.4-0.1,38c-1,1.1-1.9,2.6-3.5,2.5c-6.1,0-12.2,0.1-18.3-0.1
		c-1.5-0.5-3.2-2.1-3.1-3.7c-0.1-12.3,0-24.5,0-36.7c-11.5-0.1-23,0-34.5,0c-2,0.1-3.1-1.8-4.3-3.2c-0.2-6-0.2-12.1,0-18
		c1.2-1.2,2.3-3.3,4.3-3.2c11.5,0,23,0,34.5,0C427.6,301.6,427.6,289.6,427.6,277.6z"/>
	<rect x="47.9" y="495.2" fill="#BD0000" width="499.4" height="152.7"/>
	<g>
		<path fill="#FFFFFF" d="M126.2,544.6c7.6-6,17.6-8.7,27.2-8.2c5.9,0.1,11.4,2.5,17,4.1c0.7-1,1.2-1.9,1.8-2.9c1.2,0,2.4,0,3.6,0
			c0.1,6.5,0.2,12.9,0.4,19.4c0,2,0.8,4.3-0.7,6c-0.9,0.3-1.8,0.4-2.7,0.6c-2.1-4.8-3.4-10.1-6.5-14.3c-2.5-3.4-6-6.5-10.1-7.6
			c-5.4-1.2-11.5-0.4-15.8,3.2c-7.9,6.5-11.6,16.8-11.9,26.8c-0.3,8.2,0.9,16.8,5.4,23.7c3.2,4.6,8,8.2,13.5,9.3
			c6.6,1.2,14.1,0.5,19.4-4c4.1-3.7,5.5-9.3,6.5-14.6c1.4,0.2,2.7,0.4,4.1,0.7c-0.7,6-2.1,12.2-6.3,16.8c-5.2,5.7-13.3,7.9-20.8,7.9
			c-9.8,0.2-20.1-2.5-27.1-9.6c-7.7-7.5-10.6-18.8-10-29.2C113.8,562,117.9,551.2,126.2,544.6z"/>
		<path fill="#FFFFFF" d="M216.4,538.2c1.5-0.7,3.4-0.2,5.1-0.3c6.5,15.9,13.2,31.9,19.8,47.8c1.8,4.3,3.5,8.7,5.6,12.9
			c1.2,2.1,2.4,4.5,4.9,5.5c2.1,0.8,4.3,1,6.3,1.3c0.4,1.5,0.3,3.9-1.8,4c-11,0.1-22,0-33,0c-0.7-1.2-1-2.6-1.1-4
			c2.9-0.6,6.7-0.4,8.7-3c1.5-2.1,0.6-4.7-0.2-6.8c-1.8-4.6-3.7-9.1-5.5-13.7c-6.7-0.1-13.4,0-20.1,0c-1.5,4-3.2,8.1-4.6,12.1
			c-0.9,2.6-1.8,5.9,0,8.3c1.5,2.4,4.6,2.6,7.1,3.1c-0.1,1.4-0.4,2.7-1.1,4c-7.9,0-15.7,0-23.6,0c-0.7-1.2-1-2.6-1.1-4
			c2.3-0.4,4.8-0.6,6.6-2.1c3.5-3,5.3-7.3,7.1-11.4C202.5,574.2,209.2,556.2,216.4,538.2 M207,576.9c5.3,0,10.6,0,15.9,0
			c-2.6-6.7-5.4-13.4-8.1-20.1C212,563.4,209.6,570.2,207,576.9z"/>
		<path fill="#FFFFFF" d="M263.8,538.1c2.1-0.4,4.2-0.1,6.3-0.2c10.7,0.1,21.5-0.1,32.3,0.1c8.2,0.3,16.6,2.9,22.9,8.6
			c7.9,6.9,12.3,17.4,12.6,27.9c0.4,9.6-2.3,19.9-9.3,26.8c-4,4-9.3,6.4-14.9,7.3c-8.5,1.5-17.2,1-25.8,1.1
			c-8.1-0.1-16.2,0.1-24.3-0.1c-0.4-1.3-0.8-2.6-1.1-4c2.9-0.4,6.2-0.3,8.4-2.6c2.4-2.2,2.3-5.7,2.5-8.7c0-12.5,0-25,0-37.5
			c-0.1-3.7,0.3-7.7-1.5-11.2c-1.8-3.2-5.9-3.4-9.1-3.7C262.8,540.7,262.5,539,263.8,538.1 M287.2,542.6c0.1,16.8,0,33.5,0,50.2
			c0.1,3.2,0.2,6.6,2.4,9.1c2.2,2.6,5.9,3.2,9.1,3.2c5.1,0.1,10.4-1.1,14.2-4.7c6.9-6.3,9.9-16,9.7-25.2c0-11.2-4.9-23-14.7-29
			C301.8,542.4,294.3,542.5,287.2,542.6z"/>
		<path fill="#FFFFFF" d="M342.2,540.5c-0.2-1.5,1.4-2.8,2.9-2.6c8.3,0,16.7,0,25,0c4.9,0,9.8-0.1,14.7,0.6c8,1,15.1,7.6,16.4,15.7
			c0.7,5.1,0.1,10.8-3.4,14.9c-3.4,4.1-8.7,6-13.8,6.5c-5.7,0.3-11.3,0.2-17,0.2c0,6.4,0,12.9,0,19.3c0.1,2.8,0.4,5.9,2.4,8
			c2.1,2.1,5.4,2.2,8.2,2.5c-0.1,1.5-0.1,4.3-2.4,4c-10.2,0.1-20.5,0.1-30.7,0c-2-0.1-2.3-2.4-2.4-4c2.9-0.4,6.4-0.4,8.6-2.8
			c2.4-2.4,2.1-6.2,2.3-9.3c0-13.2,0-26.4,0-39.5c-0.2-3.6,0.1-8.2-3.4-10.4C347.2,542,343.6,543.1,342.2,540.5 M366.9,542.6
			c0,9.5,0,19,0,28.5c3.2,0,6.3,0.1,9.5-0.4c5-0.9,8.7-5.4,9.5-10.2c1.1-6-1-13.4-6.7-16.4C375.5,542,371,542.8,366.9,542.6z"/>
		<path fill="#FFFFFF" d="M440.2,537.9c1.7,0,3.3,0,5,0.1c7.7,18.7,15.5,37.4,23.2,56.1c1.4,3.1,2.6,6.5,5.1,8.9
			c2.3,2.2,5.7,2.1,8.7,2.6c-0.3,1.2,0.1,2.9-1.2,3.7c-1,0.4-2.1,0.2-3.2,0.3c-9.8-0.1-19.6,0-29.4-0.1c-2.3,0.2-2.3-2.4-2.4-4
			c2.8-0.5,6-0.4,8.2-2.5c1.8-1.9,1.1-4.8,0.3-6.9c-1.8-4.7-3.9-9.3-5.7-14c-6.7,0-13.4,0-20.1,0c-1.4,4.1-3.2,8.1-4.6,12.1
			c-0.8,2.6-1.8,5.7,0,8.2c1.5,2.5,4.6,2.7,7.3,3.2c-0.1,1.5-0.2,3.8-2.2,3.9c-6.6,0.1-13.2,0-19.8,0.1c-1.1-0.1-2.7,0.3-3.3-1
			c-0.4-1-0.3-2.1-0.4-3c2.2-0.4,4.6-0.5,6.4-2.1c3.5-2.9,5.4-7.2,7.1-11.3C426.2,574.2,433.1,556,440.2,537.9 M438.4,556.8
			c-2.5,6.8-5.1,13.4-7.6,20.1c5.3,0,10.5,0,15.8,0C443.9,570.1,441.2,563.4,438.4,556.8z"/>
	</g>
	<path fill="#FFFFFF" d="M354,677.9c9.8,0,19.7,0,29.5,0c0,1.8,0,3.6,0,5.4c-9.8,0-19.7,0-29.5,0C353.9,681.5,353.9,679.7,354,677.9
		z"/>
	<path fill="#FFFFFF" d="M354,692.1c9.8,0,19.7,0,29.5,0c0,1.8,0,3.6,0,5.4c-9.8,0-19.7,0-29.5,0C353.9,695.7,353.9,693.9,354,692.1
		z"/>
	<path fill="#FFFFFF" d="M133.8,723c10.2,0,20.4,0,30.6,0c0,4.4,0,8.8,0,13.2c-10.2,0-20.4,0-30.6,0
		C133.8,731.8,133.8,727.4,133.8,723z"/>
	<path fill="#FFFFFF" d="M210.8,752.7c2.8-3.5,4.9-7.5,6.7-11.6c1.9,3.2,3.7,6.3,5.4,9.7c2.1-2.1,4.3-4,6.5-6c0,2.5,0,5,0,7.6
		c-8.2,0.6-16.5,0.8-24.7,1.2c0-2.4,0-4.8,0-7.1C206.8,748.4,208.9,750.5,210.8,752.7z"/>
</g>
</svg>
