<?xml version="1.0" encoding="utf-8"?>
<!-- Generator: Adobe Illustrator 18.0.0, SVG Export Plug-In . SVG Version: 6.00 Build 0)  -->
<!DOCTYPE svg PUBLIC "-//W3C//DTD SVG 1.1//EN" "http://www.w3.org/Graphics/SVG/1.1/DTD/svg11.dtd">
<svg version="1.1" id="图层_1" xmlns="http://www.w3.org/2000/svg" xmlns:xlink="http://www.w3.org/1999/xlink" x="0px" y="0px"
	 viewBox="0 39.5 595.3 762.8" enable-background="new 0 39.5 595.3 762.8" xml:space="preserve">
<g id="_x23_050505ff">
	<path fill="#050505" d="M40.3,39.5h513.9c5.3,1.6,10.8,2.8,15.7,5.5c12.2,6,20.8,18,24.2,31c-0.6,1-0.4,1.8,0.4,2.4
		c0.2,0.4,0.7,1.4,0.8,1.9v680.9c-1.6,5.1-2.7,10.4-5.3,15.1c-5.9,11.5-16.6,20.4-29,24c-2.2,0.7-4.5,1.2-6.7,2H41.1
		c-4.2-1.4-8.6-2.2-12.6-4.1c-10.8-4.7-19.6-13.5-24.3-24.3c-1.9-4-2.7-8.4-4.1-12.6V80.6c0.6-1.9,1.1-3.8,1.5-5.7
		C1.7,74.5,2,73.7,2,73.2c1.5-5.1,4-9.8,7.1-14c0.1-0.1,0.1-0.1,0.1-0.2c0.9-1.2,1.8-2.4,2.8-3.5c0.1-0.1,0.1-0.1,0.1-0.2
		c3.7-4,8.2-7.5,13-10.1c0.1-0.1,0.2-0.1,0.2-0.1C30.1,42.2,35.3,41.3,40.3,39.5 M42.2,54.7c-15.4,2.4-27.8,17-27.5,32.6
		c0,222.2,0,444.4,0,666.6c-0.2,8.1,2.6,16.1,7.9,22.2c6.2,7.3,15.6,11.7,25.1,11.6c164.8,0,329.8,0,494.6,0c4.7,0,9.6,0.1,14.1-1.2
		c10.5-2.9,19.3-11.4,22.6-21.8c1.8-5.1,1.6-10.7,1.6-16c0-220.5,0-440.9,0-661.4c0.2-13.6-9-26.6-21.8-31.1
		c-6.9-2.6-14.4-1.8-21.6-1.9c-162.9,0-325.8,0-488.7,0C46.4,54.2,44.2,54.3,42.2,54.7z"/>
	<path fill="#050505" d="M260.4,669c0.7-1.3,1-2.9,2-4c3.9,1,7.7,2.3,11.6,3.5c-0.4,1-0.8,2.1-1.2,3.2c5.9,11,14,20.7,23.7,28.4
		c-3.6,3.1-6.8,6.5-9.7,10.4c-8.1-7.7-14.4-17-19.9-26.5c-5.5,9.8-12.5,18.9-20.9,26.4c-1.3-1.5-2.6-2.9-4-4.3
		c-0.2,0.5-0.6,1.5-0.8,2c-16.5-0.1-33.1,0-49.7-0.1c0-3.4,0-6.8,0-10.1c1.8,0,3.6,0,5.4,0c0.1-8.5,0-17,0-25.6
		c3.6,0,7.2-0.1,10.8,0.1c0,8.5-0.1,17,0.1,25.6c1.9-0.1,3.8-0.1,5.7,0c0-10.5,0-20.9,0-31.5c3.8,0,7.6,0,11.5,0c0,4,0,7.9,0,11.9
		c5.2,0,10.4,0,15.6,0c0,3.5,0,6.8,0,10.3c-5.2,0-10.4,0-15.6,0c0,3.1,0,6.2,0,9.3c5-0.1,10,0,15,0
		C248.7,689.6,255.6,679.8,260.4,669z"/>
	<path fill="#050505" d="M117.8,672.7c17.9-1.2,35.9-3,53.4-7c2.6,3.2,4.5,7.2,6.6,10.8c-7.3,1.8-14.7,2.9-22,3.9c0,3.5,0,7,0,10.5
		c9.5,0,19,0,28.4,0c0,3.8,0,7.6,0,11.5c-9.5,0.1-19,0-28.4,0c0,3.4,0,6.8,0,10.1c7.2,0,14.4,0,21.6,0c0,11.4,0,22.7,0,34.1
		c-18.7,0-37.4,0-56.1,0c0-11.4,0-22.7,0-34.1c7.1,0,14.1,0,21.2,0c0-3.4,0-6.8,0-10.1c-9.7-0.1-19.4,0-29-0.1
		c0.1-3.8,0.1-7.6,0-11.5c9.7,0,19.3,0.1,29,0c0-3,0-6.1,0-9.1c-7.1,0.4-14.2,1.2-21.3,1.1C120.4,679.3,119.3,675.9,117.8,672.7
		 M133.8,723c0,4.4,0,8.8,0,13.2c10.2,0,20.4,0.1,30.6-0.1c-0.1-4.4-0.1-8.7,0-13.2C154.2,722.9,144,723,133.8,723z"/>
	<path fill="#050505" d="M312.6,665.8l0.4-0.4c3.7-0.1,7.3-0.1,11,0l0.4,0.4c0.1,6.8-0.1,13.5,0.1,20.3c3.7,0,7.3-0.1,11,0
		c0,4-0.1,8.1,0,12.1c-3.7,0.1-7.3,0.1-11,0.1c-0.2,5.4-0.1,10.9-0.1,16.3c3.3-0.9,6.6-1.7,9.8-2.6c0.7,4,1.2,7.9,1.8,11.9
		c-3.9,1.2-7.8,2.4-11.7,3.5c-0.1,8.8,0,17.6,0,26.5c-0.1,3.6-0.4,7.9-3.7,10.1c-4.6,3.2-10.5,2.8-15.8,2.9
		c-0.7-4.1-1.8-8.2-3.5-12.1c3.6,0,7.2,0.2,10.8-0.2c0.4-7.9,0.1-15.7,0.1-23.5c-3.4,0.9-6.7,1.9-10.1,2.8c-1-4.3-2.1-8.6-2.9-12.9
		c4.4-0.7,8.7-2.1,13-3.1c0-6.5,0.1-13.1-0.1-19.5c-4,0.1-7.9,0-11.9,0c0-4,0-8.1,0-12.2c4,0,8,0,12,0
		C312.7,679.3,312.6,672.6,312.6,665.8z"/>
	<path fill="#050505" d="M83.6,676c3.2-2.5,6.4-5,9.7-7.4c6.1,5.3,12.1,10.8,16.8,17.5c-3.5,2.6-6.8,5.5-10.2,8.2
		C95.2,687.4,89.4,681.6,83.6,676z"/>
	<path fill="#050505" d="M341.7,668.8c18.1,0.1,36.2,0.1,54.3,0c0.1,12.7,0,25.4,0,38.1c-18.2,0-36.3,0-54.4,0
		C341.7,694.3,341.7,681.5,341.7,668.8 M354,677.9c0,1.8,0,3.6,0,5.4c9.8,0,19.7,0,29.5,0c0-1.8,0-3.6,0-5.4
		C373.6,677.9,363.8,677.9,354,677.9 M354,692.1c0,1.8,0,3.6,0,5.4c9.8,0,19.7,0.1,29.5,0c0-1.8,0-3.5,0-5.4
		C373.6,692.1,363.8,692.1,354,692.1z"/>
	<path fill="#050505" d="M422.1,672.3c25.9-0.1,51.9,0,77.8,0c0,4.4,0,8.8,0,13.2c-25.9,0-51.9,0-77.8,0
		C422.1,681.1,422.1,676.7,422.1,672.3z"/>
	<path fill="#050505" d="M256,702.3c3.3-1.7,6.7-3.3,10-4.9c3.5,4.1,6.7,8.4,9.5,12.9c-3.4,1.8-6.8,3.7-10.1,5.4l-0.5-0.2
		C262.1,710.9,259.2,706.5,256,702.3z"/>
	<path fill="#050505" d="M412,698.7c32.7,0,65.4,0,98.2,0c0,4.5,0,8.9,0,13.4c-13.8,0-27.6,0-41.5,0c-0.1,12.5,0,24.9-0.1,37.3
		c-0.1,3.9,0.2,8-1.3,11.8c-1.4,3.3-4.9,4.9-8.2,5.8c-6.3,1.5-12.9,1.2-19.3,1.3c-0.9-4.9-2.6-9.5-4.6-14c5.8,0.1,11.6,0.4,17.3,0.1
		c1.5,0,1.6-1.7,1.5-2.8c0-13.2,0-26.4,0-39.6c-14,0-28.1,0-42.2,0C412,707.6,412,703.2,412,698.7z"/>
	<path fill="#050505" d="M82,704.6c8.6,0,17.2,0,25.8,0c-0.1,12.5,0,25-0.1,37.5c0.1,1-0.4,2.6,0.8,3c3.9,2.1,7.6,4.5,11.8,6
		c5.7,2.1,11.8,2.7,17.9,3.1c15.7,0.7,31.5-0.5,47.2-2.2c-1.5,4.2-2.9,8.4-3.4,12.8c-11,0.8-21.9,1-32.8,1.2
		c-11.5,0-23.6-0.1-34.1-5.4c-3.2-1.5-6.2-3.7-9.5-5.1c-2.7-1.2-5.4,0.7-7.4,2.4c-3.3,2.9-6.1,6.4-8.8,9.8
		c-2.8-3.7-5.4-7.6-8.2-11.2c4.1-4.2,8.9-7.7,14-10.4c0-9.8-0.1-19.5,0-29.2c-4.4-0.1-8.8-0.1-13.2-0.1
		C81.9,712.8,82,708.7,82,704.6z"/>
	<path fill="#050505" d="M213.4,709.3c3.3,0.4,6.5,0.6,9.8,0.9c-0.4,6.3-1.2,12.6-2.4,18.8c-0.2,1.1,0.9,1.8,1.4,2.6
		c2.6,3.4,4.9,7,7.1,10.7c0.1-10.4,0-20.7,0-31c3.5,0,6.8,0,10.3,0c0,18.8,0,37.6,0,56.4c-3.4-0.1-6.8-0.1-10.2,0c0-1.8,0-3.6,0-5.4
		c-11.8,0.7-23.5,1.7-35.3,2.2c0-17.6,0-35.1,0-52.6c3.5,0,7.1,0,10.6,0c0.1,10.7-0.1,21.3,0.1,32c2.4-3,3.8-6.6,5-10.2
		C212.1,725.6,212.8,717.4,213.4,709.3 M210.8,752.6c-1.9-2.1-4-4.3-6.2-6.1c0,2.4,0,4.7,0,7.1c8.2-0.4,16.5-0.7,24.7-1.2
		c0-2.5,0-5,0-7.5c-2.2,1.9-4.3,3.9-6.5,5.9c-1.6-3.3-3.4-6.5-5.4-9.6C215.7,745.2,213.6,749.2,210.8,752.6z"/>
	<path fill="#050505" d="M336.4,711.8c21.7,0,43.4,0,65.1,0c0,3.5,0,7.1,0,10.7c-8.9,0-17.8,0.1-26.7,0c-0.1,3.2-0.1,6.5,0,9.8
		c7-0.1,14-0.1,21.1,0.1c-0.1,3.2,0.1,6.4-0.1,9.6l-0.4,0.4c-6.8,0.1-13.7,0.1-20.5,0c-0.1,4.3-0.1,8.5,0,12.8
		c9.9,0.4,19.8,0.1,29.8,0.1c-1.7,3.7-2.9,7.6-3.5,11.5c-9-0.2-18,0.3-27-0.3c-7.4-0.6-15-3.2-20.2-8.6c-1.9-2-3.5-4.3-5-6.7
		c-2.9,6.2-6.5,12.3-11.5,17c-3-2.9-6.2-5.6-9.7-7.9c10.1-8.4,13.9-21.8,15.3-34.4c4,0.2,8,0.8,12.1,1.3c-0.5,3.7-1.2,7.3-2,11
		c1.6,5.1,4.9,9.8,9.3,12.9c0.1-9.6,0.1-19.1,0-28.7c-8.6,0.1-17.2,0-25.8,0C336.4,719,336.4,715.4,336.4,711.8z"/>
	<path fill="#050505" d="M244.5,716.6c11.6,0.1,23.1,0,34.8,0.1c1.5,0.1,2.9-0.4,4.4-0.7c2.9,2,6,3.9,9,5.8
		c-5.2,10.7-12.2,20.4-19.4,29.9c3,2.4,5.9,4.9,8.7,7.3c-2.4,3.5-5,6.8-7.4,10.4c-9.5-9.3-20.1-17.3-30.4-25.8
		c2.3-2.9,4.5-6,6.9-8.9c4,3.1,8.1,6.2,12.1,9.3c4-5,7.9-10.3,11.2-15.9c-10-0.1-20,0-30.1,0C244.4,724.3,244.4,720.4,244.5,716.6z"
		/>
	<path fill="#050505" d="M479.8,724.7c4.2-1.7,8.2-3.5,12.4-5.1c7.1,10.3,14.1,21,18.3,32.9c-4.6,2-9,4.3-13.6,5.9
		C492.7,746.5,486.6,735.3,479.8,724.7z"/>
	<path fill="#050505" d="M427.7,720c4.6,1.2,9.3,2.4,14,3.7c-4.8,12.6-11.9,24.5-20.9,34.6c-3.9-2.9-8-5.6-12.3-7.9
		C417.3,742,423.7,731.4,427.7,720z"/>
</g>
<g id="_x23_67c13aff">
	<path fill="#67C13A" d="M25.2,45.1c0.1-0.1,0.2-0.1,0.2-0.1C25.4,45,25.3,45,25.2,45.1z"/>
	<path fill="#67C13A" d="M9.1,59.1C9.2,59,9.2,59,9.2,58.9C9.3,58.9,9.1,59.1,9.1,59.1z"/>
	<path fill="#67C13A" d="M1.5,74.9c0.1-0.4,0.4-1.2,0.4-1.7C1.9,73.6,1.7,74.4,1.5,74.9z"/>
	<path fill="#67C13A" d="M594,76.1c0.7,0.7,0.9,1.5,0.4,2.4C593.6,77.8,593.4,77,594,76.1z"/>
	<path fill="#67C13A" d="M77,104.1c4.1-1.1,8.4-1.8,12.6-2.1c137.2,0,274.4,0,411.6,0c6-0.2,11.9,0.7,17.6,2.2
		c10.9,3.5,20.1,11.8,24.9,22.1c2.9,7.1,4,15,3.7,22.7c0,166.3,0,332.7,0,499c-166.6,0-333.1,0-499.7,0c0-168.1,0-336.1,0-504.2
		c0.4-6.2,1.5-12.3,4-18.1C56.8,115.6,66,107.3,77,104.1 M176.7,225.6c-12.8,2.2-24.1,11-29.7,22.6c-4.8,9.8-6.2,20.8-6,31.6
		c0.3,8.2,1.3,16.6,4.6,24.3c2.7,6.5,7.1,12.3,12.3,17.1c2.5,2.4,5.4,4.5,7.9,7c-6.9,5.4-13.7,11.4-17.9,19.3
		c-12.5,23.1-8.5,54.6,10.8,72.9c6,5.7,13.9,9,21.9,10.6c6.4,1.4,12.9,1.2,19.5,1.8c18.6,0.5,37.3,1.2,55.9-1.4
		c9.8-1.4,20.1-4.6,26.8-12.3c10.2-11.8,16.1-27.3,15.7-42.9c0.3-11.8-2.6-24-9.4-33.8c-4.2-5.7-9.8-10.1-15.4-14.3
		c3.5-2.4,7.1-4.5,10.1-7.3c8.7-7.8,13.7-19.1,15.1-30.6c1-11.6,0.6-23.7-3.6-34.7c-3.6-10-9.6-19.7-18.8-25.4
		c-6.2-4-13.7-5.7-20.9-6.3c-11.8-1-23.6-0.8-35.4-1C205.3,223,190.9,222.9,176.7,225.6 M383.6,277.6c0,12,0,24,0,36
		c-11.2,0-22.6,0-33.8,0c-2.3-0.4-3.7,1.7-4.9,3.2c-0.4,5.3-0.1,10.7-0.2,15.9c-0.3,2.3,1.9,4.3,3.8,5.1c11.7,0.2,23.4,0,35.1,0.1
		c0,12.3,0,24.5,0,36.7c-0.1,1.6,1.4,2.6,2.4,3.5c6,0.4,12.1,0.1,18.2,0.1c2.4,0.3,4.7-2.1,4.4-4.4c0-12,0-24,0-36
		c11.2,0,22.6,0,33.8,0c2.4,0.3,4.7-2.1,4.4-4.4c0-5.1,0-10.3,0-15.5c0.3-2.4-2.1-4.7-4.4-4.4c-11.2,0-22.6,0-33.8,0
		c-0.1-12.3,0-24.5,0-36.7c0.1-1.6-1.4-2.6-2.4-3.5c-6-0.4-12.1-0.1-18.2-0.1C385.6,272.9,383.3,275.2,383.6,277.6 M138.1,543.6
		c-8.7,6.2-13.2,16.9-14,27.3c-1,11,1.8,22.9,9.8,30.7c7,7.1,17.3,9.8,27.1,9.6c7.3-0.1,15.1-2.1,20.4-7.5c4.5-4.6,6.1-11,6.7-17.2
		c-1.4-0.1-2.7-0.2-4.1-0.4c-1,5.1-2.4,10.7-6.5,14.4c-5.4,4.6-13.2,5.3-20,3.8c-7.3-1.6-13.2-7.5-15.7-14.4c-3.1-8-3.4-17-1.9-25.4
		c1.6-8.2,5.7-16.4,12.9-21.2c6.2-3.9,15.3-3.5,20.7,1.7c5.4,4.6,7.3,11.5,9.7,17.9c1.4,0.1,3.7,0.1,3.7-1.8
		c0-7.8-0.6-15.7-0.4-23.5c-1.1-0.1-2.3-0.1-3.4-0.3c-0.7,1-1.5,2-2.2,2.9c-4.3-1.1-8.4-2.9-12.8-3.6
		C157.6,535.1,146.6,537.6,138.1,543.6 M223.6,538c-0.7,0.6-1,1.5-1.3,2.4c-5.1,13.4-10.4,26.8-15.6,40.3c-2.1,5.2-4,10.6-6.4,15.7
		c-1.4,2.8-3.1,5.7-5.6,7.6c-1.8,1.3-4,1.5-6,1.8c0.1,1.2-0.3,2.6,0.8,3.5c0.7,0.8,2.1,0.4,3,0.5c6.6-0.1,13.2,0.1,19.8-0.1
		c1.9-0.1,1.9-2.5,1.8-4c-2.5-0.4-5.4-0.7-6.9-3c-1.7-2.5-0.9-5.7,0-8.4c1.5-4.1,3.1-8.1,4.7-12.1c6.7,0.1,13.4-0.1,20.1,0.1
		c1.8,4.8,3.8,9.4,5.7,14.2c0.8,2.1,1.4,4.9-0.3,6.8c-2.1,2.2-5.4,2.1-8.1,2.6c-0.3,1.7,0.1,4.3,2.4,4c10.5,0,20.9,0.1,31.5,0
		c2.1-0.1,1.9-2.5,1.8-4c-3.3-0.4-7.2-0.7-9.3-3.7c-3.1-4.4-4.7-9.6-6.8-14.5c-6.8-16.5-13.7-32.9-20.4-49.4
		C226.7,538,225.2,537.9,223.6,538 M265.2,542c2.9,0.4,6.3,0.4,8.5,2.9c2.1,2.5,1.9,6,2.1,9.1c0,13.4,0,26.9,0,40.3
		c-0.2,3-0.1,6.5-2.5,8.7c-2.1,2.4-5.4,2.2-8.2,2.5c0,1.5,0.4,2.8,1.2,4c12.7,0.1,25.4,0.1,38.1,0c6.3-0.2,12.9-0.5,18.8-3.1
		c6.8-2.9,12.1-8.7,14.6-15.5c3.8-9.7,3.6-20.9-0.3-30.6c-3.7-9.5-11.6-17.4-21.5-20.4c-6.1-2.1-12.6-2-19-2.1
		c-9.8,0.1-19.6-0.1-29.4,0.1C265.3,537.7,265.2,540.4,265.2,542 M346.3,540.5c1.5,2.5,5.1,1.5,7.2,3.2c3.4,2.2,3.2,6.7,3.5,10.3
		c0,13.2,0,26.5,0,39.8c-0.2,3.1,0.1,6.8-2.3,9.2c-2.1,2.4-5.6,2.4-8.5,2.8c0.1,1.5,0.4,3.8,2.3,4c10.2,0.1,20.5,0.1,30.7,0
		c2.2,0.3,2.3-2.5,2.3-4c-2.8-0.3-6-0.3-8.1-2.4c-2.3-2.3-2.4-5.7-2.4-8.7c0-6.2-0.1-12.3,0.1-18.4c5.8-0.1,11.6,0.1,17.4-0.3
		c5.1-0.5,10.4-2.6,13.7-6.8c3.1-4,3.7-9.3,3.1-14c-1-8-7.9-14.7-15.7-16c-3.8-0.6-7.8-0.7-11.6-0.7c-9.6,0-19.1,0-28.7,0
		C347.7,537.8,346.1,539,346.3,540.5 M438.8,537.9c-7.2,18.1-14,36.3-21.2,54.4c-1.8,4.1-3.5,8.5-7.1,11.3c-1.8,1.5-4.2,1.7-6.4,2
		c0,1.5,0.1,4.3,2.3,4c7.1,0.1,14.1,0.1,21.2,0c2-0.1,2.1-2.4,2.2-3.8c-2.6-0.6-5.8-0.7-7.3-3.2c-1.8-2.6-0.7-6,0.1-8.7
		c1.5-3.9,3.1-7.7,4.5-11.6c6.7,0,13.4,0,20.1,0c1.8,4.6,3.7,9,5.5,13.6c0.8,2.2,1.6,4.9,0.2,7c-2,2.5-5.5,2.4-8.5,2.9
		c0,1.5,0,4.3,2.3,4c9.8,0.1,19.6,0,29.4,0.1c1-0.1,2.2,0.1,3.2-0.4c1.3-0.7,1-2.4,1.2-3.7c-3.1-0.6-6.7-0.5-9-3
		c-2.2-2.5-3.3-5.6-4.7-8.5c-7.8-18.7-15.5-37.4-23.3-56.1C442.1,537.9,440.4,537.9,438.8,537.9z"/>
	<path fill="#67C13A" d="M209.8,257.5c7.4-0.4,14.8-0.3,22.3,0c6.8,0.6,14.1,0.7,19.7,5.1c6.3,4.9,8.3,13.3,8.3,20.9
		c0.2,6.3-0.8,13.3-5.4,18.1c-3.1,3.5-7.6,4.9-11.9,6.5c-3.2,1.1-6.5,1.4-9.9,1.5c-9.3,0.6-18.6,0.3-27.9,0.1
		c-6.6-1-13.8-2.5-18.7-7.5c-5.7-5.8-7-14.6-6.2-22.3c0.4-6,2.9-11.9,7.8-15.6C193.9,259,202.2,258,209.8,257.5z"/>
	<path fill="#67C13A" d="M204.7,346.4c7.4-0.7,15-0.9,22.4-0.2c8.6,0.2,18.9,0,25,7.1c4.8,4.9,7,11.7,7.1,18.4
		c0,6.2-0.7,12.9-4.2,18.3c-2.2,3.5-5.9,5.9-9.8,7.1c-4.9,1.3-10.1,0.9-15.1,1.1c-4.6,0.2-9.3,0.4-14,0.2
		c-7.3-0.4-14.6-0.3-21.8-1.3c-6.2-1.1-10.9-6.4-12.6-12.3c-2.2-7.8-2.6-16.5,0.4-24.1c1.6-4.5,4.4-9,8.9-11
		C195.3,347.6,200,347,204.7,346.4z"/>
	<path fill="#67C13A" d="M289.8,542.8c7.3-0.5,15.4-0.3,21.7,4c9.2,6.2,13.7,17.6,13.7,28.4c0.2,9-2.6,18.5-9.3,24.8
		c-3.6,3.6-8.8,5.1-13.8,5.1c-3.3,0.1-7.1-0.3-9.6-2.8c-2.5-2.5-2.7-6.2-2.8-9.5C289.8,576.2,289.8,559.5,289.8,542.8z"/>
	<path fill="#67C13A" d="M371,542.7c4.6-0.1,9.7-0.8,13.6,2.2c7.6,5.7,7.7,19.1-0.4,24.4c-4,2.4-8.8,1.8-13.2,1.8
		C370.9,561.7,370.9,552.2,371,542.7z"/>
	<path fill="#67C13A" d="M213.8,576.8c2.6-6.6,4.8-13.4,7.8-19.9c2.6,6.7,5.5,13.2,7.9,19.9C224.3,577,219.1,577,213.8,576.8z"/>
	<path fill="#67C13A" d="M436.9,556.8c3,6.5,5.6,13.2,8.2,20c-5.2,0.1-10.5,0.1-15.7,0C431.8,570.1,434.3,563.5,436.9,556.8z"/>
</g>
<g id="_x23_fefffeff">
	<path fill="#FEFFFE" d="M42.2,54.7c2.1-0.4,4.2-0.4,6.3-0.4c162.9,0,325.8,0,488.7,0c7.2,0.1,14.7-0.7,21.5,2
		c12.8,4.5,22,17.5,21.8,31.1c0,220.5,0,440.9,0,661.4c0.1,5.4,0.2,10.9-1.6,16c-3.3,10.4-12,18.8-22.6,21.8
		c-4.6,1.4-9.4,1.2-14.1,1.2c-164.8,0-329.8,0-494.6,0c-9.6,0.1-19-4.3-25.1-11.6c-5.2-6.2-8.1-14.2-7.9-22.3
		c0-222.2,0-444.4,0-666.6C14.4,71.6,26.8,57.1,42.2,54.7 M77,104.1c-11,3.2-20.2,11.5-25.3,21.8c-2.5,5.7-3.5,11.9-4,18.1
		c0,168.1,0,336.1,0,504.2c166.6,0,333.1,0,499.7,0c0-166.3,0-332.7,0-499c0.2-7.7-0.8-15.6-3.7-22.7c-4.8-10.4-14-18.7-24.9-22.1
		c-5.7-1.5-11.7-2.4-17.6-2.2c-137.2,0-274.4,0-411.6,0C85.4,102.3,81.1,102.9,77,104.1 M260.4,669c-4.8,10.8-11.7,20.7-20.4,28.7
		c-5,0-10,0-15,0c0-3.1,0-6.2,0-9.3c5.2-0.1,10.4,0,15.6,0c0-3.5,0-6.8,0-10.3c-5.2,0-10.4,0-15.6,0c0-4,0-7.9,0-11.9
		c-3.8,0-7.6,0-11.5,0c0,10.5,0,20.9,0,31.5c-1.9,0-3.8,0-5.7,0c-0.2-8.5-0.1-17-0.1-25.6c-3.6-0.1-7.2-0.1-10.8-0.1
		c0,8.5,0.1,17,0,25.6c-1.8,0-3.6,0-5.4,0c0,3.4,0,6.8,0,10.1c16.5,0.1,33.1-0.1,49.7,0.1c0.2-0.5,0.6-1.5,0.8-2
		c1.3,1.4,2.6,2.9,4,4.3c8.5-7.5,15.4-16.5,20.9-26.4c5.6,9.6,11.9,18.9,19.9,26.5c2.9-3.8,6.1-7.3,9.7-10.4
		c-9.7-7.8-17.9-17.6-23.7-28.4c0.4-1.1,0.7-2.1,1.2-3.2c-3.9-1.2-7.7-2.4-11.6-3.5C261.3,666,261,667.7,260.4,669 M117.8,672.7
		c1.5,3.3,2.6,6.8,3.3,10.3c7.1,0,14.2-0.7,21.3-1.1c0,3,0,6.1,0,9.1c-9.7,0.1-19.3,0.1-29,0c0,3.8,0,7.6,0,11.5
		c9.7,0.1,19.3,0,29,0.1c0,3.4,0,6.8,0,10.1c-7.1,0-14.1,0-21.2,0c0,11.4,0,22.7,0,34.1c18.7,0,37.4,0,56.1,0c0-11.4,0-22.7,0-34.1
		c-7.2,0-14.4,0-21.6,0c0-3.4,0-6.8,0-10.1c9.5,0,19,0,28.4,0c-0.1-3.8-0.1-7.6,0-11.5c-9.5,0-19,0-28.4,0c0-3.5,0-7.1,0-10.5
		c7.4-1,14.8-2.1,22-3.9c-2.2-3.6-4-7.6-6.6-10.8C153.7,669.6,135.7,671.4,117.8,672.7 M312.6,665.8c-0.1,6.8,0.1,13.5-0.1,20.3
		c-4,0-8,0-12,0c0,4,0,8.1,0,12.2c4,0,7.9,0.1,11.9,0c0.2,6.5,0.1,13.1,0.1,19.5c-4.3,1-8.7,2.3-13,3.1c0.8,4.3,1.9,8.6,2.9,12.9
		c3.4-1,6.7-1.9,10.1-2.8c0,7.9,0.2,15.7-0.1,23.5c-3.6,0.5-7.2,0.3-10.8,0.2c1.7,3.8,2.8,7.9,3.5,12.1c5.4-0.1,11.2,0.4,15.8-2.9
		c3.3-2.2,3.7-6.5,3.7-10.1c0-8.8-0.1-17.6,0-26.5c3.9-1.1,7.8-2.4,11.7-3.5c-0.6-4-1.2-7.9-1.8-11.9c-3.3,0.9-6.6,1.8-9.8,2.6
		c0-5.4-0.1-10.9,0.1-16.3c3.7,0.1,7.3,0.1,11-0.1c-0.1-4-0.1-8.1,0-12.1c-3.7-0.1-7.3-0.1-11,0c-0.1-6.8,0-13.5-0.1-20.3l-0.4-0.4
		c-3.7-0.1-7.3-0.1-11,0L312.6,665.8 M83.6,676c5.9,5.7,11.7,11.5,16.3,18.3c3.5-2.7,6.8-5.6,10.2-8.2c-4.7-6.6-10.7-12.2-16.8-17.5
		C90,671,86.7,673.5,83.6,676 M341.7,668.8c-0.1,12.7,0,25.4-0.1,38.1c18.2,0,36.3,0,54.4,0c0-12.7,0-25.4,0-38.1
		C378,668.9,359.9,668.9,341.7,668.8 M422.1,672.3c0.1,4.4,0.1,8.7,0,13.2c25.9,0.1,51.9,0,77.8,0c0-4.4,0-8.8,0-13.2
		C473.9,672.3,448,672.3,422.1,672.3 M256,702.3c3.2,4.3,6.2,8.7,8.8,13.3l0.5,0.2c3.5-1.7,6.8-3.6,10.1-5.4
		c-2.8-4.6-6-8.9-9.5-12.9C262.6,699,259.2,700.5,256,702.3 M412,698.7c0,4.5,0,8.9,0,13.4c14,0,28.1,0,42.2,0c0,13.2,0,26.4,0,39.6
		c0.1,1.1-0.1,2.7-1.5,2.8c-5.8,0.3-11.6,0-17.3-0.1c2,4.5,3.7,9.1,4.6,14c6.5-0.1,13,0.2,19.3-1.3c3.3-0.9,6.8-2.4,8.2-5.8
		c1.5-3.7,1.2-7.8,1.3-11.8c0-12.5-0.1-24.9,0.1-37.3c13.8,0,27.6,0,41.5,0c0-4.5,0-8.9,0-13.4C477.5,698.7,444.7,698.7,412,698.7
		 M82,704.6c0,4.1-0.1,8.2,0.1,12.3c4.4-0.1,8.8-0.1,13.2,0.1c-0.1,9.8,0,19.5,0,29.2c-5.1,2.7-10,6.2-14,10.4
		c2.8,3.7,5.4,7.6,8.2,11.2c2.7-3.5,5.5-6.9,8.8-9.8c2-1.8,4.7-3.7,7.4-2.4c3.3,1.4,6.2,3.6,9.5,5.1c10.5,5.3,22.6,5.4,34.1,5.4
		c11-0.2,21.9-0.4,32.8-1.2c0.5-4.4,1.9-8.7,3.4-12.8c-15.7,1.6-31.5,2.8-47.2,2.2c-6-0.4-12.1-1-17.9-3.1c-4.2-1.5-7.9-4-11.8-6
		c-1.2-0.4-0.6-2.1-0.8-3c0.1-12.5,0-25,0.1-37.5C99.2,704.6,90.6,704.6,82,704.6 M213.4,709.3c-0.7,8.2-1.3,16.5-3.8,24.3
		c-1.2,3.6-2.6,7.3-5,10.2c-0.1-10.7,0-21.3-0.1-32c-3.5,0-7.1,0-10.6,0c0,17.6,0,35.1,0,52.6c11.8-0.6,23.5-1.5,35.3-2.2
		c0,1.8,0,3.6,0,5.4c3.4-0.1,6.8-0.1,10.2,0c0.1-18.8,0-37.6,0-56.4c-3.5,0-6.9,0-10.3,0c0,10.4,0.1,20.7,0,31
		c-2.2-3.7-4.5-7.3-7.1-10.7c-0.4-0.9-1.5-1.5-1.4-2.6c1.2-6.2,2.1-12.5,2.4-18.8C220,709.8,216.7,709.5,213.4,709.3 M336.4,711.8
		c0,3.5,0,7.1,0,10.7c8.6,0,17.2,0.1,25.8,0c0.1,9.6,0.1,19.1,0,28.7c-4.5-3-7.7-7.8-9.3-12.9c0.7-3.7,1.5-7.3,2-11
		c-4-0.5-8-1.2-12.1-1.3c-1.4,12.6-5.1,26-15.3,34.4c3.5,2.4,6.6,5.1,9.7,7.9c5.1-4.8,8.7-10.8,11.5-17c1.5,2.3,3.1,4.6,5,6.7
		c5.2,5.4,12.8,8,20.2,8.6c9,0.7,18,0.1,27,0.3c0.7-4,1.8-7.9,3.5-11.5c-9.9-0.1-19.8,0.2-29.8-0.1c0-4.3-0.1-8.5,0-12.8
		c6.8,0.1,13.7,0.1,20.5,0l0.4-0.4c0.1-3.2-0.1-6.4,0.1-9.6c-7.1-0.1-14-0.1-21.1-0.1c-0.1-3.2-0.1-6.5,0-9.8c8.9,0.1,17.8,0,26.7,0
		c0-3.6,0-7.1,0-10.7C379.9,711.8,358.1,711.8,336.4,711.8 M244.5,716.6c-0.1,3.8-0.1,7.7-0.1,11.5c10,0,20,0,30.1,0
		c-3.3,5.6-7.1,10.8-11.2,15.9c-4-3.2-8.1-6.2-12.1-9.3c-2.4,2.9-4.6,5.9-6.9,8.9c10.3,8.5,20.9,16.5,30.4,25.8
		c2.4-3.5,4.9-6.9,7.4-10.4c-2.9-2.5-5.8-5-8.7-7.3c7.2-9.5,14.2-19.2,19.4-29.9c-3-1.9-6-3.8-9-5.8c-1.5,0.4-2.9,0.7-4.4,0.7
		C267.7,716.6,256.1,716.7,244.5,716.6 M479.8,724.7c6.8,10.7,12.9,21.8,17.1,33.7c4.6-1.7,9-4,13.6-5.9
		c-4.3-11.9-11.2-22.6-18.3-32.9C488,721.2,483.9,723.1,479.8,724.7 M427.7,720c-4.1,11.3-10.4,22-19.3,30.4c4.3,2.4,8.4,5,12.3,7.9
		c9-10.1,16-22,20.9-34.6C437.1,722.4,432.3,721.2,427.7,720z"/>
	<path fill="#FEFFFE" d="M12.1,55.4c0.1-0.1,0.1-0.1,0.1-0.2C12.2,55.3,12.1,55.4,12.1,55.4z"/>
	<path fill="#FEFFFE" d="M176.7,225.6c14.2-2.7,28.7-2.6,43.1-2.6c11.8,0.1,23.6,0,35.4,1c7.3,0.7,14.7,2.4,20.9,6.3
		c9.3,5.7,15.2,15.3,18.8,25.4c4.2,11,4.6,23.1,3.6,34.7c-1.3,11.5-6.3,22.8-15.1,30.6c-3,2.9-6.6,5-10.1,7.3
		c5.6,4.2,11.3,8.5,15.4,14.3c6.8,9.8,9.7,22,9.4,33.8c0.4,15.7-5.5,31.2-15.7,42.9c-6.8,7.7-17,10.9-26.8,12.3
		c-18.5,2.5-37.3,1.9-55.9,1.4c-6.5-0.5-13.1-0.4-19.5-1.8c-8-1.5-15.9-4.9-21.9-10.6c-19.3-18.3-23.3-49.7-10.8-72.9
		c4.1-7.9,11-13.9,17.9-19.3c-2.5-2.5-5.4-4.6-7.9-7c-5.1-4.9-9.6-10.5-12.3-17.1c-3.2-7.6-4.3-16-4.6-24.3
		c-0.1-10.8,1.2-21.8,6-31.6C152.6,236.6,163.9,227.8,176.7,225.6 M209.8,257.5c-7.6,0.5-15.8,1.5-21.8,6.7
		c-4.9,3.7-7.4,9.6-7.8,15.6c-0.7,7.8,0.6,16.5,6.2,22.3c4.9,5,12.1,6.5,18.7,7.5c9.3,0.2,18.6,0.5,27.9-0.1
		c3.4-0.1,6.7-0.4,9.9-1.5c4.3-1.5,8.8-3,11.9-6.5c4.6-4.8,5.6-11.8,5.4-18.1c0-7.6-2.1-16-8.3-20.9c-5.6-4.4-12.9-4.5-19.7-5.1
		C224.6,257.2,217.2,257.1,209.8,257.5 M204.7,346.4c-4.6,0.6-9.3,1.2-13.7,3c-4.5,2.1-7.3,6.5-8.9,11c-2.9,7.7-2.6,16.3-0.4,24.1
		c1.7,5.9,6.4,11.2,12.6,12.3c7.2,1,14.5,0.9,21.8,1.3c4.6,0.2,9.3,0,14-0.2c5.1-0.2,10.2,0.2,15.1-1.1c3.9-1.2,7.6-3.5,9.8-7.1
		c3.5-5.4,4.1-12,4.2-18.3c0-6.7-2.2-13.6-7.1-18.4c-6.1-7.1-16.4-6.9-25-7.1C219.7,345.5,212.1,345.7,204.7,346.4z"/>
	<path fill="#FEFFFE" d="M383.6,277.6c-0.3-2.4,2.1-4.7,4.4-4.4c6,0.1,12.1-0.2,18.2,0.1c1,1,2.6,1.9,2.4,3.5
		c0.1,12.3,0,24.5,0,36.7c11.2,0,22.6,0,33.8,0c2.4-0.3,4.7,2.1,4.4,4.4c0,5.1,0,10.4,0,15.5c0.3,2.4-2.1,4.7-4.4,4.4
		c-11.2,0-22.6,0-33.8,0c0,12,0,24,0,36c0.3,2.4-2.1,4.7-4.4,4.4c-6-0.1-12.1,0.2-18.2-0.1c-1-1-2.6-1.9-2.4-3.5
		c-0.1-12.3,0-24.5,0-36.7c-11.7-0.1-23.4,0.1-35.1-0.1c-1.9-0.8-4-2.7-3.8-5.1c0.1-5.3-0.2-10.7,0.2-15.9c1.3-1.5,2.6-3.6,4.9-3.2
		c11.2,0,22.6,0,33.8,0C383.6,301.6,383.6,289.6,383.6,277.6z"/>
	<path fill="#FEFFFE" d="M354,677.9c9.8,0,19.7-0.1,29.5,0c0,1.8,0,3.5,0,5.4c-9.8,0.1-19.7,0-29.5,0C354,681.5,354,679.7,354,677.9
		z"/>
	<path fill="#FEFFFE" d="M354,692.1c9.8,0,19.7,0,29.5,0c0,1.8,0,3.5,0,5.4c-9.8,0.1-19.7,0.1-29.5,0C354,695.7,354,693.9,354,692.1
		z"/>
	<path fill="#FEFFFE" d="M133.8,723c10.2,0,20.4-0.1,30.6,0.1c-0.1,4.4-0.1,8.7,0,13.2c-10.2,0.1-20.4,0-30.6,0.1
		C133.8,731.8,133.8,727.4,133.8,723z"/>
	<path fill="#FEFFFE" d="M210.8,752.6c2.8-3.5,4.9-7.4,6.7-11.5c2,3.1,3.7,6.2,5.4,9.6c2.1-2,4.3-4,6.5-5.9c0,2.5,0,5,0,7.5
		c-8.2,0.6-16.5,0.8-24.7,1.2c0-2.4,0-4.7,0-7.1C206.8,748.4,208.9,750.5,210.8,752.6z"/>
</g>
<rect x="47.4" y="528.2" fill="#67C13A" width="500.3" height="119.7"/>
<g enable-background="new    ">
	<path fill="#FFFFFF" d="M175.6,538.1l1.8,24.5h-1.8c-2.2-7.4-5.2-12.6-9.6-15.7c-3.9-3.1-9.2-4.8-14.8-4.8c-4.8,0-9.2,1.3-13.1,3.5
		c-3.9,2.6-7,6.1-9.2,11.8c-2.2,5.2-3.5,11.8-3.5,20.1c0,6.5,0.9,12.2,3.1,17c2.2,4.8,5.2,8.3,9.6,11c4.4,2.6,9.2,3.9,14.4,3.9
		c4.8,0,8.7-0.9,12.2-3.1c3.5-2.2,7.4-6.1,11.8-11.8l1.8,0.9c-3.5,6.5-7.9,11.4-12.6,14c-4.8,3.1-10.5,4.3-17,4.3
		c-11.8,0-21.4-4.3-27.9-13.5c-4.8-6.5-7.4-14.4-7.4-23.1c0-7.4,1.8-14,4.8-20.1c3-6.1,7.9-11,13.5-14c5.7-3.5,11.8-4.8,18.8-4.8
		c5.2,0,10.5,1.3,15.3,3.9c1.3,0.9,2.6,1.3,3.1,1.3c0.9,0,1.8-0.4,2.6-0.9c0.9-0.9,1.8-2.2,2.2-3.9h2.2L175.6,538.1L175.6,538.1z"/>
	<path fill="#FFFFFF" d="M232.3,588.2h-27.9l-4.8,11.4c-1.3,2.6-1.8,4.8-1.8,6.1c0,1.3,0.4,2.2,1.8,3.1c0.9,0.9,3.5,1.3,7,1.8v2.2
		h-22.7v-2.2c3.1-0.4,4.8-1.3,5.7-2.2c1.8-1.8,3.9-5.2,6.1-10.5l25.4-59.4h1.8l25.4,60.3c2.2,4.8,3.9,7.9,5.7,9.6
		c1.8,1.3,3.9,2.2,7,2.6v2.2h-28.4V611c3.1,0,4.8-0.4,5.7-1.3s1.3-1.8,1.3-3.1c0-1.8-0.9-3.9-2.2-7.4L232.3,588.2z M231.1,584.3
		L218.9,555l-12.6,29.2L231.1,584.3L231.1,584.3z"/>
	<path fill="#FFFFFF" d="M266.5,612.2V610h2.6c3.1,0,5.2-0.9,6.5-3.1c0.9-1.3,1.3-3.9,1.3-7.9v-46.7c0-4.3-0.4-7.4-1.3-8.3
		c-1.3-1.8-3.5-2.2-6.1-2.2h-2.6v-2.2h29.2c11,0,19.2,1.3,24.5,3.5c5.7,2.6,10.1,6.5,13.5,12.2c3.5,5.7,5.2,12.2,5.2,19.6
		c0,10.1-3.1,18.4-9.2,25.4c-7,7.4-17.5,11.4-31.5,11.4h-32.3L266.5,612.2L266.5,612.2z M287.1,607c4.3,0.9,8.3,1.3,11.4,1.3
		c8.3,0,15.3-3.1,20.5-8.7c5.2-5.7,8.3-13.5,8.3-23.6c0-10.1-2.6-17.9-8.3-23.6c-5.7-5.7-12.2-8.7-20.9-8.7c-3.1,0-7,0.4-11,1.8V607
		L287.1,607z"/>
	<path fill="#FFFFFF" d="M366,578.5v20.9c0,4.3,0.4,7.4,1.3,8.3c1.3,1.8,3.5,2.2,6.1,2.2h2.6v2.2h-31V610h2.6c3.1,0,5.2-0.9,6.5-3.1
		c0.9-1.3,0.9-3.9,0.9-7.9v-46.7c0-4.3-0.4-7.4-1.3-8.3c-1.3-1.8-3.5-2.2-6.1-2.2H345v-2.2h26.7c6.5,0,11.4,0.9,15.3,2.2
		c3.9,1.3,7,3.5,9.6,6.5c2.6,3.1,3.9,7,3.9,11.4c0,6.1-1.8,10.5-5.7,14.4c-3.9,3.5-9.6,5.7-16.6,5.7c-1.8,0-3.5,0-5.7-0.4
		C370.4,579,368.7,579,366,578.5z M366,575.4c1.8,0.4,3.5,0.4,4.8,0.9c1.3,0,2.6,0.4,3.9,0.4c3.5,0,7-1.3,9.6-4.3
		c2.6-3.1,3.9-6.5,3.9-11c0-3.1-0.4-6.1-1.8-8.7c-1.3-2.6-3.1-4.8-5.2-6.1c-2.2-1.3-4.8-2.2-7.9-2.2c-1.8,0-3.9,0.4-7,0.9v30.1
		L366,575.4L366,575.4z"/>
	<path fill="#FFFFFF" d="M454.7,588.2h-27.9l-4.8,11.4c-1.3,2.6-1.8,4.8-1.8,6.1c0,1.3,0.4,2.2,1.8,3.1c0.9,0.9,3.5,1.3,7,1.8v2.2
		h-22.7v-2.2c3.1-0.4,4.8-1.3,5.7-2.2c1.8-1.8,3.9-5.2,6.1-10.5l25.4-59.4h1.8l25.4,60.3c2.2,4.8,3.9,7.9,5.7,9.6
		c1.8,1.3,3.9,2.2,7,2.6v2.2H455V611c3.1,0,4.8-0.4,5.7-1.3c0.9-0.9,1.3-1.8,1.3-3.1c0-1.8-0.9-3.9-2.2-7.4L454.7,588.2z
		 M453.3,584.3L441.1,555l-12.6,29.2L453.3,584.3L453.3,584.3z"/>
</g>
</svg>
