<?xml version="1.0" standalone="no"?><!DOCTYPE svg PUBLIC "-//W3C//DTD SVG 1.1//EN" "http://www.w3.org/Graphics/SVG/1.1/DTD/svg11.dtd"><svg t="1672397998795" class="icon" viewBox="0 0 1024 1024" version="1.1" xmlns="http://www.w3.org/2000/svg" p-id="2899" xmlns:xlink="http://www.w3.org/1999/xlink" width="512" height="512"><path d="M531.4 114.8L414.1 365l97.9 70.1L627.2 512l87.2-68.3L826 313.4z" fill="#191919" p-id="2900"></path><path d="M831 282.1L565.1 98.7c-10.7-7.4-24.1-9.6-36.7-5.9-12.6 3.7-22.7 12.7-27.8 24.7L381.8 399.6c-4.3 10.1-10.9 19.2-19.3 26.2l-87 73.2c-28.7 24.2-44.9 60.9-43.2 98.4l9.2 209.4-37.6 54.4c-11.7 2.2-22.4 10.2-27.3 23.1-4.8 12.6-1.7 27.5 7.6 37.2 6.6 6.9 14.9 10.4 23.2 11.2v0.3h448.4v-51.5H252.4l31.4-45.5 199-65.7c35.6-11.8 64.3-39.9 76.7-75.4L597 587.6c3.6-10.3 9.7-19.7 17.6-27.3l221.6-211.2c9.5-9 14.3-21.7 13.3-34.7-1-13.1-7.8-24.8-18.5-32.3zM548.4 570.6L510.9 678c-7.1 20.4-23.7 36.7-44.2 43.5l-134.4 44.4 131.8-191c11.7-2.2 22.4-10.2 27.3-23.1 4.8-12.6 1.7-27.5-7.6-37.2-16.5-17.3-43.5-14.4-56.3 4.2-5.6 8.2-7.4 17.8-5.8 26.9l-131.8 191-6.2-141.4c-0.9-21.6 8.4-42.8 24.9-56.8l87-73.2c14.6-12.3 26.2-28 33.6-45.6l4.8-11.5 151.5 108.7-6.5 6.2c-13.7 13.1-24.3 29.5-30.6 47.5z m75.1-89.9L454.6 359.5l89.6-212.7 249.2 172-169.9 161.9z" fill="#D1D2D4" p-id="2901"></path></svg>