<svg t="1676275879543" class="icon" viewBox="0 0 1024 1024" version="1.1" xmlns="http://www.w3.org/2000/svg" p-id="5947" width="700" height="700"><path d="M771.8 266.88H252.2c-135.59 0-245.5 109.91-245.5 245.5s109.91 245.5 245.5 245.5h519.6c135.59 0 245.5-109.91 245.5-245.5s-109.91-245.5-245.5-245.5z m-386.8 277h-73.64v73.68c0 16.24-11.92 30.34-28 32.27a32 32 0 0 1-36-31.76v-74.19h-73.69c-16.24 0-30.34-11.92-32.27-28a32 32 0 0 1 31.76-36h74.19V406.2c0-16.24 11.92-30.34 28-32.27a32 32 0 0 1 36 31.76v74.19h74.19a32 32 0 0 1 31.76 36c-1.93 16.12-16.02 28-32.3 28z m294.84-45A53.16 53.16 0 1 1 733 445.67a53.16 53.16 0 0 1-53.12 53.17zM790 631.49a53.16 53.16 0 1 1 53.16-53.16A53.16 53.16 0 0 1 790 631.49z" fill="#d81e06" p-id="5948"></path></svg>