<?xml version="1.0" encoding="utf-8"?>
<!-- Generator: Adobe Illustrator 18.0.0, SVG Export Plug-In . SVG Version: 6.00 Build 0)  -->
<!DOCTYPE svg PUBLIC "-//W3C//DTD SVG 1.1//EN" "http://www.w3.org/Graphics/SVG/1.1/DTD/svg11.dtd">
<svg version="1.1" id="图层_1" xmlns="http://www.w3.org/2000/svg" xmlns:xlink="http://www.w3.org/1999/xlink" x="0px" y="0px"
	 viewBox="0 0 512 512" enable-background="new 0 0 512 512" xml:space="preserve">
<path fill="#5392FA" d="M417,512H95c-52.3,0-95-42.8-95-95L0,95C0,42.8,42.8,0,95,0l322,0c52.3,0,95,42.8,95,95v322
	C512,469.3,469.3,512,417,512z"/>
<path fill="#191919" d="M265.7,57.4l-58.7,125.1l48.9,35.1l57.6,38.4l43.6-34.1l55.8-65.2L265.7,57.4z"/>
<path fill="#D1D2D4" d="M415.5,141.1l-133-91.7c-5.4-3.7-12-4.8-18.4-3c-6.3,1.8-11.4,6.3-13.9,12.4l-59.4,141.1
	c-2.1,5.1-5.4,9.6-9.6,13.1l-43.5,36.6c-14.3,12.1-22.4,30.5-21.6,49.2l4.6,104.7l-18.8,27.2c-5.8,1.1-11.2,5.1-13.7,11.5
	c-2.4,6.3-0.8,13.8,3.8,18.6c3.3,3.5,7.4,5.2,11.6,5.6v0.1h224.2v-25.8H126.2l15.7-22.8l99.5-32.9c17.8-5.9,32.1-20,38.4-37.7
	l18.8-53.7c1.8-5.1,4.9-9.9,8.8-13.6l110.8-105.6c4.8-4.5,7.1-10.9,6.6-17.4C424.2,150.6,420.8,144.8,415.5,141.1L415.5,141.1z
	 M274.2,285.3L255.4,339c-3.6,10.2-11.9,18.4-22.1,21.8L166.1,383l65.9-95.5c5.9-1.1,11.2-5.1,13.6-11.5c2.4-6.3,0.9-13.8-3.8-18.6
	c-8.3-8.6-21.8-7.2-28.1,2.1c-2.8,4.1-3.7,8.9-2.9,13.5l-65.9,95.5l-3.1-70.7c-0.4-10.8,4.2-21.4,12.4-28.4l43.5-36.6
	c7.3-6.1,13.1-14,16.8-22.8l2.4-5.8l75.8,54.3l-3.3,3.1C282.6,268.1,277.3,276.3,274.2,285.3L274.2,285.3z M311.8,240.3l-84.4-60.6
	l44.8-106.3l124.6,86L311.8,240.3z"/>
</svg>
